<?xml version="1.0" standalone="no"?>
<!DOCTYPE svg PUBLIC "-//W3C//DTD SVG 20010904//EN"
 "http://www.w3.org/TR/2001/REC-SVG-20010904/DTD/svg10.dtd">
<svg version="1.0" xmlns="http://www.w3.org/2000/svg"
 width="2400.000000pt" height="1200.000000pt" viewBox="0 0 2400.000000 1200.000000"
 preserveAspectRatio="xMidYMid meet">
<metadata>
Created by potrace 1.10, written by Peter Selinger 2001-2011
</metadata>
<g transform="translate(0.000000,1200.000000) scale(0.100000,-0.100000)"
fill="#ffffff" stroke="none">
<path d="M13374 11127 c1 -737 -1 -878 -13 -900 -18 -33 -39 -35 -51 -3 -5 13
-14 27 -20 31 -5 3 -16 21 -24 38 -19 44 -148 186 -199 219 -23 15 -63 43 -89
63 -25 19 -50 35 -56 35 -5 0 -28 14 -50 30 -23 17 -46 30 -51 30 -5 0 -14 6
-20 14 -16 19 2 23 94 25 76 1 163 21 191 42 47 37 118 119 138 159 42 84 30
301 -20 376 -13 19 -22 40 -18 45 3 6 -5 20 -18 32 -12 12 -44 46 -69 74 -36
41 -59 57 -105 72 -108 37 -181 43 -549 46 -332 3 -363 2 -402 -15 -24 -11
-43 -23 -43 -27 0 -5 -22 -26 -50 -47 -27 -21 -50 -45 -50 -52 0 -8 -8 -31
-19 -52 -20 -42 -35 -149 -20 -157 5 -4 9 -17 9 -31 0 -13 5 -24 10 -24 13 0
13 -27 1 -32 -6 -2 -6 -31 -1 -77 6 -40 8 -77 5 -81 -3 -4 -10 -43 -16 -86 -6
-44 -14 -83 -19 -89 -11 -14 -14 -195 -5 -275 8 -63 18 -91 42 -120 7 -8 29
-35 49 -59 26 -33 56 -54 115 -82 44 -20 83 -40 86 -43 8 -8 -57 -65 -73 -66
-7 0 -46 -33 -89 -72 -42 -40 -84 -76 -93 -79 -23 -9 -37 0 -120 70 -65 54
-78 60 -143 71 -69 12 -143 4 -251 -26 -24 -7 -97 -109 -115 -161 -13 -37 -13
-49 -2 -71 7 -15 11 -33 10 -40 -1 -7 7 -24 18 -39 28 -34 29 -113 3 -136 -41
-37 -139 -4 -181 61 -32 50 -50 159 -45 279 5 127 28 201 79 260 l41 46 74 0
c73 0 140 -8 170 -20 27 -11 114 -1 150 17 19 10 45 31 58 47 12 15 33 42 47
59 21 27 25 43 25 98 0 59 -5 76 -42 147 -24 44 -47 88 -53 98 -18 30 -95 101
-109 101 -8 0 -18 5 -21 10 -3 6 -14 10 -24 10 -10 0 -21 9 -24 21 -5 17 -11
19 -44 14 -114 -20 -178 -36 -192 -49 -25 -21 -118 -66 -139 -66 -50 0 -66 67
-33 142 21 49 119 133 174 149 69 20 141 3 195 -45 48 -42 179 -122 214 -131
43 -11 96 13 154 71 29 30 58 54 64 54 33 0 -14 295 -54 339 -9 10 -16 21 -16
26 0 24 -130 146 -178 166 -55 24 -217 37 -392 33 -74 -2 -245 -5 -380 -6
-235 -3 -247 -4 -284 -26 -57 -34 -126 -92 -126 -107 0 -7 -11 -20 -25 -29
-32 -21 -73 -11 -85 20 -5 13 -13 24 -17 24 -5 0 -20 11 -34 24 -14 13 -50 36
-80 50 -53 25 -61 25 -214 23 -127 -3 -167 -7 -192 -20 -17 -9 -35 -21 -38
-27 -3 -5 -14 -10 -24 -10 -38 0 -149 -142 -167 -213 -7 -29 -20 -78 -28 -110
-9 -32 -16 -73 -16 -91 0 -32 -24 -66 -47 -66 -20 0 -63 91 -74 159 -6 36 -20
81 -30 99 -10 18 -19 38 -19 43 0 11 -98 136 -121 156 -8 6 -50 25 -93 43 -80
32 -148 44 -316 59 -92 8 -97 8 -153 -20 -53 -26 -93 -60 -122 -102 -5 -8 -18
-26 -29 -41 -31 -45 -22 -154 24 -281 10 -27 24 -88 30 -135 10 -72 9 -103 -6
-195 -9 -61 -18 -135 -19 -165 -3 -75 -14 -169 -25 -205 -5 -16 -12 -86 -14
-155 -18 -471 -23 -527 -53 -552 -13 -11 -20 -8 -43 20 -15 18 -33 45 -39 60
-7 15 -19 40 -27 55 -8 16 -14 35 -14 43 0 7 -9 28 -20 46 -11 18 -20 40 -20
50 0 9 -29 74 -65 145 -36 70 -65 140 -65 155 0 40 30 83 96 139 89 75 158
172 163 229 7 76 7 195 0 240 -5 30 -11 69 -13 86 -2 18 -9 42 -16 54 -6 12
-13 59 -14 104 -5 153 -40 255 -107 314 -44 38 -92 62 -122 62 -14 0 -30 6
-36 14 -10 12 -54 14 -249 12 -130 -1 -336 1 -457 6 -293 12 -354 3 -430 -60
-30 -24 -55 -53 -55 -62 0 -10 -5 -20 -11 -22 -6 -2 -17 -22 -25 -43 -11 -34
-11 -54 1 -133 7 -51 18 -99 23 -105 12 -15 22 -69 27 -152 2 -36 7 -70 10
-75 3 -6 8 -96 11 -202 9 -356 8 -433 -6 -467 -10 -24 -10 -35 -1 -44 6 -6 11
-19 11 -30 0 -14 -6 -18 -27 -15 -25 3 -29 9 -37 53 -5 28 -13 53 -19 57 -26
16 -58 184 -70 370 -2 26 -6 51 -10 54 -4 4 -7 17 -7 29 0 13 -7 41 -15 65
-21 60 -37 242 -35 403 1 112 -2 145 -16 177 -10 22 -21 40 -25 40 -4 0 -16
15 -27 33 -20 35 -91 81 -139 91 -26 5 -356 15 -693 20 -136 3 -148 1 -190
-21 -54 -29 -98 -74 -136 -138 l-28 -48 2 -196 c1 -170 -4 -268 -22 -396 -11
-78 -25 -155 -30 -163 -3 -5 -10 -33 -15 -63 -6 -30 -14 -72 -20 -94 -5 -22
-15 -60 -21 -85 -6 -25 -21 -53 -33 -62 -19 -15 -20 -20 -9 -38 10 -17 10 -21
-3 -26 -32 -13 -41 2 -38 67 1 34 -2 68 -8 75 -5 6 -9 29 -8 50 0 22 -4 58
-10 82 -6 24 -8 48 -5 54 4 6 8 58 10 117 4 142 32 397 49 441 18 49 32 103
46 183 13 67 13 68 -21 137 -24 49 -45 77 -69 93 -128 82 -107 75 -258 76
-213 1 -233 -3 -311 -63 -49 -37 -73 -65 -91 -101 -23 -47 -23 -53 -11 -115 7
-36 26 -96 42 -135 30 -73 60 -209 62 -284 2 -71 -16 -86 -111 -87 -43 -1
-107 -4 -143 -8 -59 -6 -68 -4 -94 17 -28 22 -30 29 -30 88 1 84 11 141 39
214 49 130 57 165 53 228 -7 96 -72 175 -178 217 -49 19 -68 21 -209 16 -86
-2 -174 -9 -195 -14 -28 -8 -60 -31 -113 -84 -68 -67 -73 -76 -73 -115 0 -23
5 -45 10 -48 6 -4 8 -15 5 -25 -3 -10 2 -36 11 -57 24 -56 35 -92 45 -143 4
-25 12 -67 18 -95 5 -31 5 -84 0 -139 -5 -49 -7 -97 -4 -106 13 -41 21 -446
12 -583 -5 -76 -17 -98 -42 -77 -9 7 -14 19 -11 26 3 8 -1 20 -9 28 -8 8 -15
23 -15 33 0 10 -6 28 -14 39 -12 17 -28 82 -55 219 -4 23 -11 47 -16 55 -5 8
-16 57 -26 110 -31 175 -40 215 -55 238 -8 13 -12 32 -9 42 6 20 -5 65 -31
128 -8 18 -14 44 -14 57 0 13 -6 39 -14 57 -7 18 -19 51 -26 73 -31 96 -74
168 -145 239 -40 39 -83 76 -96 83 -39 19 -189 64 -197 60 -4 -2 -63 0 -131 4
-86 6 -128 6 -137 -2 -7 -6 -22 -8 -32 -5 -62 20 -542 -5 -572 -29 -8 -7 -35
-19 -60 -27 -59 -20 -162 -119 -193 -186 -17 -36 -23 -65 -21 -99 4 -74 13
-110 30 -124 9 -7 20 -24 25 -36 5 -13 20 -28 34 -33 14 -5 25 -16 25 -24 0
-34 131 -48 180 -19 28 16 29 16 49 -8 16 -20 19 -35 16 -85 -2 -34 -11 -77
-19 -95 -8 -19 -22 -86 -31 -149 -10 -63 -21 -119 -25 -125 -4 -5 -10 -26 -13
-45 -6 -40 -24 -110 -39 -155 -15 -45 -28 -94 -41 -154 -7 -30 -18 -56 -24
-58 -25 -9 -58 92 -68 207 -10 118 -63 370 -81 391 -8 8 -14 26 -14 38 0 12
-13 51 -30 86 -16 35 -30 71 -30 78 0 8 -7 20 -15 27 -8 7 -15 22 -15 34 0 12
-11 37 -25 56 -14 19 -25 41 -25 49 0 30 -49 121 -65 121 -8 0 -15 7 -15 15 0
28 -90 141 -140 175 -29 19 -64 44 -78 56 -44 33 -172 85 -193 79 -11 -4 -27
-1 -35 6 -10 8 -57 11 -162 9 -81 -1 -158 -2 -172 -3 -14 0 -92 3 -174 7 -131
7 -153 6 -190 -10 -94 -41 -176 -135 -176 -202 0 -35 20 -108 50 -182 57 -140
67 -279 62 -835 -1 -82 1 -181 5 -220 9 -115 0 -251 -27 -400 -21 -116 -23
-123 -88 -278 -26 -62 -6 -207 27 -207 6 0 11 -5 11 -12 0 -6 25 -35 56 -63
54 -51 58 -53 143 -64 100 -14 688 -7 811 9 41 6 91 12 110 15 19 3 44 9 55
14 11 5 41 18 67 30 25 11 49 25 53 31 3 5 14 10 23 10 24 0 162 141 162 165
0 9 14 24 32 35 l31 19 42 -87 c29 -60 56 -99 87 -127 72 -65 87 -75 109 -75
11 0 28 -4 37 -9 10 -5 56 -12 104 -15 48 -3 106 -9 128 -12 54 -9 257 16 271
33 7 7 17 13 23 13 13 0 86 83 86 98 0 5 7 15 15 22 26 21 20 103 -10 138 -14
17 -25 35 -25 41 0 16 -94 129 -137 165 -41 34 -75 86 -93 141 -7 22 -16 44
-21 50 -12 12 -11 203 1 287 12 80 56 152 141 227 85 74 129 93 203 85 80 -8
117 -25 159 -75 34 -39 67 -117 67 -158 0 -11 5 -23 11 -27 6 -3 8 -16 5 -28
-3 -11 0 -39 5 -61 6 -22 13 -104 15 -182 4 -123 2 -143 -11 -143 -10 0 -15
-10 -15 -32 -1 -20 -19 -65 -45 -113 -25 -44 -50 -91 -56 -105 -6 -14 -17 -36
-24 -50 -19 -37 -26 -93 -19 -139 5 -32 19 -54 59 -96 80 -82 101 -88 280 -81
201 9 253 14 286 32 15 8 41 14 58 14 16 0 33 5 36 10 12 20 83 11 108 -14 15
-15 49 -29 98 -40 65 -14 94 -15 220 -6 158 12 210 31 239 85 8 15 22 31 32
36 41 22 48 49 38 143 -5 48 -13 93 -18 99 -13 16 -22 104 -28 272 -7 179 -7
174 3 212 7 29 21 49 99 141 17 20 43 63 57 94 28 61 49 78 94 78 22 0 36 -10
61 -42 18 -24 35 -54 38 -68 3 -14 10 -34 15 -45 18 -38 17 -206 -1 -305 -10
-52 -21 -122 -25 -154 -4 -33 -11 -66 -16 -75 -20 -35 -52 -140 -61 -199 -12
-74 -5 -123 22 -147 11 -10 20 -22 20 -27 0 -18 55 -78 72 -78 9 0 20 -4 23
-10 3 -5 17 -10 31 -10 14 0 34 -4 44 -10 27 -14 143 -18 234 -8 96 10 154 34
187 77 13 17 37 46 52 64 15 17 30 42 33 55 10 36 44 27 109 -28 33 -27 65
-50 71 -50 7 0 26 -11 42 -25 17 -14 37 -25 46 -25 9 0 27 -7 39 -14 38 -25
154 -38 391 -42 125 -2 232 -6 236 -9 13 -8 174 5 254 20 114 22 142 31 178
59 19 14 39 26 44 26 5 1 25 14 44 30 19 17 43 30 53 30 25 0 82 -34 133 -81
68 -61 70 -62 283 -61 228 0 257 7 334 81 65 62 79 96 67 159 -8 46 -15 66
-46 139 -8 17 -14 35 -14 40 0 5 -9 29 -21 52 -11 24 -22 66 -25 93 -2 27 -7
55 -11 61 -13 21 -11 152 3 192 7 22 14 48 14 58 0 10 12 22 28 27 15 6 35 15
45 20 22 13 31 8 68 -42 17 -25 29 -54 29 -72 0 -17 7 -41 15 -53 8 -12 13
-28 10 -36 -3 -7 6 -58 20 -112 15 -55 24 -110 22 -124 -3 -14 -1 -36 5 -50 5
-15 16 -61 23 -104 19 -107 58 -171 151 -251 l75 -64 102 -12 c56 -7 117 -16
136 -21 27 -6 45 -4 79 11 25 11 50 20 57 20 7 0 24 9 37 20 43 33 109 46 160
30 24 -8 52 -19 63 -26 62 -37 299 -42 398 -8 56 19 141 107 152 157 10 52 6
111 -10 123 -8 6 -18 25 -21 42 -4 18 -13 37 -20 43 -8 6 -14 17 -14 24 0 7
-12 26 -27 43 -76 87 -93 112 -112 167 -40 119 -69 333 -52 378 11 29 13 75 8
245 -2 68 0 125 4 127 3 3 16 -4 28 -14 16 -14 20 -26 16 -44 -4 -14 -2 -28 4
-31 5 -4 10 -44 10 -91 0 -61 5 -93 18 -117 9 -18 18 -55 19 -82 2 -27 7 -59
13 -70 20 -41 41 -99 41 -114 0 -14 29 -85 86 -209 13 -29 28 -53 34 -53 5 0
10 -6 10 -13 0 -19 63 -77 83 -77 9 0 17 -6 17 -13 0 -21 100 -60 168 -65 39
-3 62 -1 62 6 0 6 13 10 28 10 30 -1 82 27 82 45 0 5 19 27 41 48 62 57 72 82
64 162 -9 97 -7 249 4 299 6 24 13 56 16 71 l6 29 27 -29 c23 -24 27 -37 29
-93 1 -36 6 -89 12 -118 6 -28 8 -67 5 -85 -11 -70 -28 -143 -36 -153 -4 -6
-11 -32 -14 -57 -4 -26 -13 -52 -20 -58 -8 -6 -14 -19 -14 -28 0 -9 -9 -35
-21 -56 -20 -38 -28 -60 -48 -140 -16 -62 24 -148 94 -201 74 -57 138 -72 275
-66 69 2 126 10 142 18 15 8 35 14 46 14 10 0 36 13 58 30 21 16 46 30 55 30
8 0 20 5 27 12 14 14 49 -2 100 -44 22 -19 44 -28 68 -28 19 0 66 -5 104 -11
44 -6 75 -7 87 -1 10 6 45 6 83 2 88 -11 301 -22 375 -20 33 1 96 3 140 4 44
1 107 -1 140 -4 43 -4 75 -1 112 11 28 10 53 15 56 13 9 -9 127 49 127 63 0
13 30 18 89 14 23 -1 43 -12 61 -31 15 -16 40 -32 56 -35 16 -4 45 -13 64 -20
51 -19 858 -14 945 6 91 20 221 115 282 207 38 57 68 68 81 30 4 -13 7 -633 6
-1378 -3 -1474 -2 -2293 1 -2410 3 -107 -12 -161 -50 -179 -26 -12 -923 -14
-6640 -13 -3635 1 -6627 -1 -6647 -4 l-38 -6 0 -54 0 -54 6745 0 6745 0 0
3380 0 3380 -58 0 -59 0 1 -873z m-10455 341 c90 -8 148 -17 157 -25 7 -7 16
-13 21 -13 14 0 92 -96 119 -145 58 -108 69 -134 94 -230 11 -44 27 -101 35
-126 8 -26 15 -58 15 -72 0 -14 4 -28 9 -32 6 -3 13 -27 16 -53 3 -26 11 -55
16 -65 6 -10 14 -51 19 -90 9 -71 22 -129 55 -237 9 -30 23 -84 30 -120 25
-117 43 -188 49 -199 10 -16 26 -144 36 -298 6 -78 14 -153 20 -168 5 -14 10
-78 10 -141 0 -95 -3 -122 -20 -154 -36 -71 -75 -79 -415 -83 -136 -2 -152 0
-176 18 -35 26 -48 63 -35 95 13 29 45 79 63 98 19 19 87 166 113 242 28 79
30 176 7 305 -9 50 -19 117 -22 150 -6 63 -30 159 -46 185 -5 8 -13 24 -18 35
-5 11 -34 45 -66 77 -78 78 -153 94 -315 67 -83 -13 -175 -80 -265 -194 -22
-27 -42 -52 -46 -55 -3 -3 -14 -21 -24 -40 -38 -72 -37 -414 1 -500 39 -89 57
-112 171 -227 68 -68 126 -135 129 -149 8 -32 -8 -68 -38 -88 -62 -39 -458
-37 -533 3 -52 27 -80 54 -102 98 -32 61 -35 96 -18 223 9 63 20 147 24 187 5
40 13 78 17 84 4 7 13 39 20 73 7 34 20 88 29 121 9 33 22 94 30 135 7 41 20
104 29 140 10 36 22 91 29 122 7 31 15 60 20 64 4 4 7 19 7 34 0 14 8 53 19
86 30 96 39 134 49 219 6 44 17 109 26 145 29 122 17 211 -34 248 -62 46 -112
21 -146 -76 -20 -57 -53 -87 -85 -77 -55 18 -119 107 -119 167 0 65 72 153
162 199 31 15 73 24 148 30 58 5 139 13 180 18 88 11 345 6 549 -11z m2219 2
c56 -29 80 -55 87 -93 6 -32 -9 -111 -25 -132 -17 -24 -34 -87 -47 -185 -21
-153 -33 -510 -21 -595 14 -94 13 -239 -2 -415 -11 -114 -11 -176 -2 -290 20
-242 32 -354 42 -375 21 -46 21 -83 1 -121 -36 -66 -61 -73 -268 -74 l-183 0
-31 28 c-42 38 -51 110 -21 174 61 131 75 179 99 353 27 193 24 300 -11 408
-50 154 -122 228 -234 242 -82 10 -130 -32 -147 -125 -26 -144 -49 -179 -118
-180 -48 0 -84 -24 -92 -59 -3 -16 1 -71 9 -123 11 -67 14 -128 9 -204 -7
-134 8 -235 48 -309 38 -71 37 -99 -3 -139 l-33 -32 -168 -14 c-200 -16 -260
-8 -302 41 -34 41 -33 90 3 161 52 101 64 154 67 288 6 291 5 951 -1 1013 -4
38 -1 105 6 159 13 99 3 266 -21 325 -23 56 -62 134 -70 139 -20 12 -9 66 19
93 26 26 34 28 182 39 189 15 247 15 255 2 3 -5 18 -10 32 -10 38 0 93 -60 93
-101 0 -29 -61 -173 -81 -189 -14 -12 -21 -76 -24 -225 -4 -169 3 -224 28
-250 17 -16 97 -21 113 -6 16 16 148 40 194 36 60 -5 139 -25 146 -36 3 -5 18
-9 34 -9 21 0 36 9 54 33 29 38 33 85 17 192 -5 33 -12 99 -15 146 -5 83 -27
151 -82 251 -15 27 -19 115 -6 134 9 14 47 34 81 44 14 4 99 8 188 9 145 1
167 -1 201 -19z m3667 9 c28 -6 88 -14 134 -20 46 -5 92 -14 102 -19 10 -6 25
-10 34 -10 44 0 135 -107 135 -158 0 -10 4 -22 9 -27 5 -6 18 -44 30 -85 12
-41 29 -90 37 -108 7 -18 14 -44 14 -57 0 -13 4 -26 9 -29 5 -4 12 -30 16 -59
4 -28 12 -60 17 -71 6 -10 14 -42 18 -70 5 -28 16 -85 25 -126 9 -41 21 -94
26 -117 12 -61 36 -95 58 -83 44 23 67 156 81 451 4 102 12 195 18 205 5 10
12 42 15 71 3 28 10 60 15 70 5 10 20 40 33 68 26 57 69 107 115 135 28 18 50
20 209 20 160 0 181 -2 210 -20 56 -35 63 -72 36 -190 -6 -25 -10 -176 -10
-345 -1 -281 1 -307 24 -410 43 -195 46 -209 57 -244 13 -42 26 -126 39 -251
12 -114 37 -279 51 -337 6 -24 11 -93 11 -155 0 -101 -2 -119 -25 -170 -15
-31 -45 -77 -68 -102 l-43 -46 -179 0 c-167 0 -182 2 -206 21 -37 28 -62 69
-62 99 0 14 20 60 44 103 24 42 54 103 66 135 12 31 26 65 31 75 17 32 20 192
10 477 -13 328 -35 661 -50 739 -25 129 -103 119 -116 -16 -3 -32 -10 -80 -16
-108 -5 -27 -14 -126 -19 -220 -9 -172 -20 -257 -38 -291 -44 -83 -63 -257
-47 -440 7 -80 7 -81 -22 -113 -70 -80 -201 -79 -296 1 -46 38 -73 87 -161
291 -9 21 -16 45 -16 55 0 9 -7 26 -15 36 -8 11 -15 34 -15 51 0 17 -4 35 -9
40 -12 12 -25 95 -41 255 -6 63 -15 129 -20 145 -5 17 -12 50 -16 74 -4 25
-13 56 -21 70 -7 14 -13 38 -13 53 0 15 -4 29 -9 32 -5 4 -12 25 -16 49 -13
78 -48 124 -85 112 -26 -8 -43 -47 -64 -140 -16 -70 -37 -303 -29 -317 2 -4 4
-112 4 -240 0 -331 15 -450 68 -558 25 -51 96 -153 136 -196 5 -6 17 -22 25
-34 8 -12 23 -33 33 -45 24 -33 22 -85 -6 -111 -44 -40 -84 -49 -238 -49 -140
0 -152 2 -219 34 -8 4 -26 23 -41 42 -24 30 -30 51 -44 168 -16 123 -16 143
-1 260 18 145 32 320 41 506 4 72 11 144 16 160 5 17 14 91 20 165 6 74 15
180 20 235 16 163 14 284 -6 335 -9 25 -19 56 -22 70 -3 14 -10 30 -15 37 -5
6 -16 40 -24 74 -13 56 -13 65 3 97 36 71 122 96 248 71z m2696 -10 c10 -5 27
-9 38 -9 11 0 42 -21 68 -47 48 -47 50 -51 81 -179 18 -72 32 -146 32 -165 -1
-47 -28 -80 -69 -81 -28 -1 -45 11 -119 83 -47 46 -89 87 -92 90 -3 4 -24 16
-47 28 -77 39 -212 22 -315 -39 -38 -22 -119 -99 -141 -132 -44 -69 -55 -212
-26 -329 19 -75 94 -77 187 -6 31 25 87 61 124 81 57 30 77 36 131 36 57 0 66
-3 95 -31 45 -45 121 -161 128 -198 4 -17 11 -34 15 -37 5 -3 9 -26 9 -52 0
-57 -29 -109 -65 -118 -24 -6 -133 26 -161 48 -22 16 -157 12 -213 -8 -64 -23
-136 -83 -158 -133 -25 -56 -45 -184 -50 -316 -6 -164 13 -243 78 -323 80 -99
203 -146 286 -110 81 35 123 91 123 163 0 57 -23 109 -76 169 -42 49 -54 86
-36 112 4 5 23 20 43 32 33 20 50 22 165 22 115 -1 133 -3 169 -24 71 -40 78
-69 82 -315 1 -124 7 -228 14 -248 16 -49 -5 -129 -45 -171 -62 -66 -84 -71
-356 -77 -135 -3 -258 -6 -275 -7 -16 0 -55 5 -85 11 -30 7 -159 15 -286 19
-208 6 -234 9 -253 26 -32 29 -29 107 8 182 40 80 60 139 67 202 4 29 11 55
15 58 16 9 11 507 -6 577 -10 45 -17 177 -24 483 -9 394 -11 424 -30 467 -12
25 -21 50 -21 56 0 5 -4 11 -8 13 -19 7 -52 78 -52 109 0 77 71 97 354 98 110
0 200 2 202 3 7 8 480 -5 495 -13z m-10341 -31 c71 -25 102 -40 155 -77 61
-41 155 -135 155 -155 0 -8 4 -16 9 -18 9 -3 125 -239 136 -278 4 -14 25 -61
46 -105 66 -139 71 -154 104 -375 8 -52 20 -133 26 -180 6 -47 17 -107 25
-134 16 -55 18 -199 3 -266 -5 -25 -14 -85 -19 -134 -5 -49 -14 -94 -20 -100
-5 -5 -10 -20 -10 -32 0 -12 -7 -27 -15 -34 -8 -7 -15 -17 -15 -22 0 -16 -79
-143 -116 -186 -37 -44 -120 -92 -158 -92 -12 0 -26 -4 -31 -9 -6 -5 -57 -18
-115 -29 -95 -18 -141 -20 -470 -18 -405 2 -430 5 -480 63 -41 47 -40 92 5
180 19 37 35 73 35 79 0 6 6 24 14 40 8 16 19 76 26 134 6 58 17 134 22 170
13 81 14 275 1 354 -6 36 -6 90 -1 135 19 164 20 188 10 251 -6 36 -14 153
-18 260 -3 107 -8 198 -10 202 -2 3 -9 30 -14 60 -8 45 -31 101 -81 200 -22
43 0 94 51 120 41 21 689 17 750 -4z m6960 0 c71 -24 86 -54 94 -194 4 -64 11
-125 16 -134 5 -9 12 -45 15 -80 4 -36 13 -84 21 -108 19 -58 18 -208 -1 -246
-8 -15 -15 -33 -15 -40 0 -21 -75 -93 -173 -166 -54 -40 -104 -85 -112 -99
-17 -33 -4 -68 57 -149 48 -64 78 -114 78 -132 0 -6 7 -18 15 -26 8 -9 15 -27
15 -42 0 -15 7 -36 15 -46 8 -11 15 -28 15 -37 0 -10 6 -30 14 -46 8 -15 29
-59 47 -98 17 -38 35 -77 39 -85 140 -268 192 -382 186 -405 -10 -41 -53 -73
-124 -95 -73 -23 -112 -25 -162 -9 -19 6 -53 15 -75 19 -103 21 -178 78 -188
144 -3 17 -17 75 -31 129 -14 54 -26 113 -26 133 0 42 -27 161 -43 189 -6 11
-14 38 -18 60 -13 69 -36 159 -48 190 -28 70 -105 114 -177 100 -73 -13 -171
-149 -181 -249 -5 -49 6 -182 27 -336 11 -82 36 -144 69 -174 31 -28 54 -82
47 -108 -8 -31 -16 -40 -51 -60 -26 -14 -68 -17 -263 -19 l-232 -3 -30 29
c-25 24 -30 36 -30 78 0 27 6 63 14 80 34 74 45 109 52 164 3 32 11 69 16 83
5 14 9 90 9 170 -6 1093 -8 1208 -22 1282 -8 42 -17 80 -21 84 -5 4 -8 16 -8
28 0 11 -7 48 -16 83 -19 75 -14 103 24 138 l27 26 545 -4 c451 -3 553 -6 590
-19z m-1826 -6 l238 -7 30 -35 29 -35 -6 -97 c-4 -54 -8 -103 -8 -110 -3 -28
16 -235 24 -273 16 -74 38 -170 48 -210 6 -22 11 -86 11 -143 0 -56 4 -110 9
-120 5 -9 19 -48 31 -87 12 -38 25 -79 31 -90 12 -26 28 -102 40 -190 6 -38
14 -90 20 -114 22 -100 32 -249 22 -334 -10 -79 -55 -197 -96 -247 -24 -30
-102 -86 -142 -102 -123 -50 -201 -55 -448 -32 -37 3 -109 1 -160 -5 -81 -10
-108 -9 -225 9 -121 19 -145 25 -192 52 -8 4 -26 13 -40 19 -31 12 -130 116
-130 135 0 8 -4 14 -8 14 -5 0 -19 24 -31 53 -22 49 -23 61 -18 192 3 77 10
154 16 170 9 28 23 129 40 302 4 40 12 78 18 85 6 7 14 29 18 48 4 19 11 40
15 45 11 15 30 91 45 180 8 44 21 116 30 160 31 157 35 203 35 440 1 266 6
291 65 327 33 19 4 19 689 0z m6552 1 c126 -15 182 -47 239 -138 28 -45 61
-240 51 -306 -13 -82 -62 -138 -147 -164 -54 -17 -60 -17 -133 0 -61 14 -82
24 -102 48 -24 29 -25 34 -18 106 11 103 9 136 -13 165 -63 86 -269 46 -339
-66 -25 -38 -33 -61 -51 -136 -15 -63 54 -165 147 -219 25 -14 47 -29 50 -33
5 -8 78 -48 190 -106 36 -19 70 -39 77 -44 7 -6 15 -10 18 -10 10 0 100 -42
105 -49 3 -4 19 -16 37 -26 119 -74 236 -224 320 -410 26 -58 27 -411 1 -469
-10 -21 -18 -47 -18 -58 0 -32 -68 -160 -106 -200 -60 -64 -98 -88 -175 -107
-67 -17 -116 -19 -496 -20 -468 -2 -446 -5 -524 67 -53 48 -65 94 -50 195 7
45 16 116 21 157 16 140 32 235 41 245 5 5 9 23 9 40 0 46 81 154 116 155 7 0
25 7 40 15 20 10 59 15 120 15 88 0 91 -1 122 -31 19 -19 32 -41 32 -57 0 -28
-30 -102 -41 -102 -4 0 -10 -13 -14 -30 -4 -16 -11 -32 -16 -35 -15 -10 -10
-122 8 -177 23 -71 85 -131 157 -152 49 -14 60 -15 111 -1 81 21 133 67 178
157 49 98 71 187 62 252 -6 51 -26 120 -44 153 -5 10 -26 52 -47 94 -20 42
-47 89 -61 103 -26 29 -96 76 -112 76 -5 0 -22 5 -38 12 -125 53 -281 53 -392
2 -35 -17 -103 -13 -109 6 -2 5 -9 10 -16 10 -36 0 -82 97 -90 190 -8 89 9
267 27 288 9 11 12 84 12 281 0 146 4 272 9 279 4 8 22 22 39 32 29 18 53 19
376 16 190 -2 387 -8 437 -13z m-2465 -185 c69 -143 71 -155 85 -563 3 -104 8
-212 10 -240 2 -27 5 -127 8 -222 2 -94 9 -180 14 -190 15 -27 -4 -243 -23
-262 -12 -13 -15 -11 -25 13 -5 15 -15 71 -21 124 -6 53 -15 122 -20 152 -6
30 -14 83 -18 117 -5 35 -13 69 -19 76 -6 7 -11 22 -11 32 0 34 -20 117 -32
131 -6 8 -9 24 -6 36 3 11 1 30 -5 41 -16 30 -27 183 -30 407 -2 201 14 354
39 382 19 21 31 13 54 -34z m2227 -222 c11 -11 25 -46 31 -78 12 -67 36 -128
50 -128 6 0 17 -13 26 -29 8 -16 24 -32 35 -36 13 -4 20 -15 20 -31 0 -28 -8
-30 -36 -9 -10 8 -31 15 -46 15 -16 0 -28 4 -28 9 0 5 -15 14 -34 21 -46 15
-121 75 -146 117 -32 55 -27 99 18 143 42 43 75 45 110 6z m-130 -780 c17 -9
37 -16 45 -16 8 0 40 -21 72 -47 56 -47 63 -57 124 -197 25 -58 28 -167 6
-206 -8 -14 -14 -35 -15 -46 0 -32 -72 -101 -119 -115 -53 -16 -82 -3 -117 52
-21 33 -25 50 -21 83 8 63 31 164 40 172 13 14 7 65 -13 105 -30 57 -109 136
-145 144 -16 3 -45 13 -62 22 -27 13 -35 14 -49 3 -13 -12 -17 -11 -25 1 -14
22 -5 33 30 40 18 4 38 12 43 17 16 16 168 7 206 -12z"/>
<path d="M2745 11149 c-41 -11 -157 -132 -193 -199 -16 -30 -37 -80 -46 -111
-17 -54 -17 -58 -1 -83 28 -42 43 -38 237 60 15 8 58 14 100 14 105 1 123 16
122 107 -2 75 -24 131 -72 178 -44 44 -83 53 -147 34z m58 -140 c12 -7 25 -16
28 -22 10 -14 -1 -47 -16 -47 -6 0 -20 -9 -30 -20 -20 -23 -63 -26 -88 -7 -23
17 -9 80 18 85 11 2 24 8 30 13 12 12 32 11 58 -2z"/>
<path d="M970 11121 c-59 -37 -74 -55 -104 -124 -49 -111 -74 -389 -57 -654
15 -245 29 -393 41 -418 5 -11 13 -40 19 -65 30 -138 49 -186 94 -244 35 -44
115 -86 165 -86 38 0 120 35 140 59 53 66 71 109 92 221 4 25 13 57 18 71 6
15 14 57 17 95 9 93 -12 475 -31 566 -9 40 -22 107 -29 148 -15 90 -19 101
-98 260 -33 69 -77 142 -96 163 -31 32 -41 37 -81 37 -32 0 -58 -8 -90 -29z
m103 -132 c27 -12 95 -129 115 -199 8 -25 20 -60 28 -77 7 -18 11 -39 8 -47
-3 -8 -1 -17 5 -20 5 -3 13 -37 16 -74 4 -37 11 -72 16 -77 4 -6 11 -58 14
-115 4 -58 8 -121 9 -140 12 -141 5 -313 -13 -355 -5 -11 -14 -42 -20 -68 -13
-56 -52 -121 -80 -137 -51 -27 -141 10 -141 58 0 10 -9 27 -19 36 -12 11 -22
38 -26 69 -3 29 -13 75 -20 103 -8 28 -17 88 -20 133 -2 45 -7 85 -9 90 -5 7
-20 326 -17 371 0 14 3 54 5 90 2 36 6 99 8 140 2 41 7 82 10 90 4 8 9 31 12
50 7 39 51 90 77 90 10 0 29 -5 42 -11z"/>
<path d="M7611 11160 c-122 -44 -175 -108 -214 -260 -18 -70 -36 -306 -29
-380 5 -53 34 -90 72 -90 37 0 62 20 285 232 131 125 165 216 130 354 -20 79
-41 114 -89 143 -41 26 -85 26 -155 1z m109 -141 l42 -31 -4 -61 c-5 -66 -31
-117 -95 -186 -17 -18 -37 -41 -45 -50 -43 -48 -92 -82 -113 -77 -31 8 -49 57
-40 104 4 20 7 52 7 71 0 19 8 52 19 75 10 22 19 48 19 58 0 35 106 124 151
127 9 1 35 -13 59 -30z"/>
<path d="M6013 11149 c-20 -6 -49 -30 -76 -64 -70 -85 -94 -146 -118 -300 -5
-33 -13 -71 -18 -85 -9 -24 -35 -161 -47 -245 -7 -50 -6 -498 2 -545 7 -47 50
-163 74 -200 6 -8 14 -24 19 -35 15 -33 70 -98 99 -115 47 -29 86 -31 159 -8
102 31 195 108 209 173 3 17 9 35 13 40 14 23 40 278 40 395 0 140 -13 341
-29 440 -6 36 -17 108 -24 160 -22 153 -47 224 -109 307 -21 28 -49 59 -62 67
-31 20 -92 27 -132 15z m93 -154 c53 -40 81 -99 94 -195 6 -46 14 -88 16 -92
3 -5 7 -29 10 -56 2 -26 7 -74 10 -107 4 -33 10 -127 14 -210 4 -82 11 -169
15 -192 4 -23 4 -50 -1 -60 -7 -16 -13 -105 -15 -195 0 -15 -6 -40 -14 -55 -8
-15 -15 -37 -15 -49 0 -13 -23 -42 -56 -74 l-55 -52 -57 7 c-65 8 -73 13 -112
70 -56 82 -88 231 -84 400 4 209 15 394 24 430 16 59 29 115 36 155 12 75 47
206 59 225 24 38 64 75 81 75 9 0 32 -11 50 -25z"/>
<path d="M4629 7970 c-91 -9 -203 -49 -263 -94 -68 -53 -136 -129 -136 -154 0
-19 -5 -23 -27 -20 -21 2 -29 9 -31 28 -8 72 -34 129 -75 163 -70 57 -98 67
-188 67 -63 0 -93 -5 -125 -21 -81 -39 -153 -144 -154 -223 l0 -39 -21 19
c-12 10 -32 35 -45 54 -73 107 -95 125 -229 185 -82 37 -430 48 -470 15 -10
-8 -24 -15 -33 -16 -30 -5 -87 -39 -143 -86 -65 -55 -97 -64 -114 -31 -7 13
-35 45 -63 72 -38 36 -63 51 -99 60 -45 10 -193 9 -328 -3 -33 -3 -102 -2
-154 2 -114 10 -180 2 -208 -22 -103 -92 -109 -101 -118 -177 -9 -79 -14 -99
-25 -99 -6 0 -10 8 -10 18 -1 22 -130 164 -184 200 -93 63 -207 82 -505 85
l-226 2 -42 -26 c-23 -14 -59 -47 -80 -75 l-38 -49 1 -150 c2 -503 2 -1540 -1
-1650 -4 -167 9 -218 69 -273 73 -67 84 -69 416 -63 255 5 392 43 464 128 15
18 35 35 46 38 10 3 23 18 29 33 6 15 15 34 21 42 5 8 14 27 20 43 15 43 28
32 35 -30 3 -32 11 -75 17 -96 11 -38 19 -47 96 -120 l40 -39 319 1 c175 1
329 3 343 4 45 5 123 64 151 114 34 62 52 73 76 47 38 -43 130 -112 176 -132
68 -30 147 -44 262 -45 218 -4 329 35 444 153 36 37 71 76 76 85 16 27 45 8
45 -29 0 -17 9 -45 20 -63 27 -45 96 -112 126 -123 34 -13 206 -13 241 1 64
24 142 127 143 190 0 14 6 33 13 43 12 16 16 16 25 5 6 -8 30 -36 52 -64 74
-91 96 -110 161 -142 77 -38 96 -42 219 -53 156 -14 303 10 413 67 17 8 57 40
89 70 62 60 90 64 102 17 8 -31 81 -110 121 -130 41 -22 140 -29 206 -15 45
10 61 20 99 60 27 29 57 51 75 55 26 6 37 0 89 -48 70 -66 78 -67 294 -69 182
-1 205 5 268 68 74 73 68 -13 70 1065 0 536 -2 987 -6 1001 -12 42 -109 134
-156 147 -56 16 -189 8 -222 -14 -14 -9 -55 -44 -90 -77 -54 -50 -67 -58 -76
-45 -23 31 -63 73 -78 83 -8 6 -28 19 -44 30 -24 17 -49 21 -198 25 -125 4
-180 2 -204 -7 -51 -19 -120 -83 -147 -135 -14 -27 -29 -48 -33 -48 -5 0 -21
14 -38 31 -48 52 -174 141 -213 151 -115 29 -221 38 -332 28z m-1435 -101 c84
-15 164 -45 204 -76 44 -33 102 -124 109 -171 3 -20 11 -43 16 -50 16 -20 23
-468 8 -486 -9 -11 -42 -13 -146 -12 -74 2 -138 6 -142 10 -5 4 -8 108 -8 230
0 244 -5 264 -63 288 -43 17 -136 13 -171 -8 -52 -31 -61 -72 -61 -272 1 -179
14 -275 42 -309 18 -23 72 -44 148 -59 97 -18 154 -34 164 -45 6 -5 16 -9 23
-9 15 0 112 -66 131 -89 21 -26 59 -112 77 -172 14 -48 16 -99 13 -327 -2
-200 -6 -274 -15 -284 -7 -6 -13 -21 -13 -33 0 -62 -104 -179 -186 -207 -160
-57 -458 -35 -531 38 -8 7 -20 17 -28 21 -21 13 -85 116 -85 138 0 12 -6 27
-12 33 -10 10 -13 80 -13 280 l0 267 130 0 c72 0 135 -1 142 -3 9 -3 12 -61
11 -220 0 -232 5 -266 51 -306 17 -16 37 -20 99 -20 80 0 121 16 138 54 12 27
16 303 6 407 -9 92 -13 106 -39 131 -25 26 -109 62 -146 62 -34 0 -219 63
-243 83 -71 58 -124 122 -124 152 0 12 -5 26 -11 32 -43 43 -45 613 -2 698 6
11 21 42 34 69 13 26 41 63 62 81 42 36 132 74 180 76 18 1 43 5 57 9 37 12
126 11 194 -1z m1671 -7 c67 -12 134 -43 178 -81 40 -36 87 -110 87 -138 0
-11 5 -24 11 -30 15 -15 30 -161 36 -349 4 -141 3 -162 -12 -174 -21 -17 -282
-23 -292 -6 -4 5 -5 96 -4 201 3 263 -9 306 -97 326 -61 13 -131 -3 -163 -39
l-27 -30 -6 -443 c-4 -244 -3 -575 1 -734 8 -287 8 -290 32 -314 65 -65 232
-43 261 34 7 18 15 306 11 374 -1 11 -14 12 -67 7 -45 -5 -71 -3 -80 5 -19 15
-20 254 -2 265 7 4 108 8 226 9 180 1 214 -1 222 -14 11 -20 1 -588 -11 -625
-5 -16 -9 -40 -9 -53 0 -24 -14 -61 -48 -132 -21 -42 -93 -106 -148 -130 -23
-10 -88 -24 -145 -31 -89 -11 -119 -10 -209 3 -119 18 -162 36 -220 91 -62 59
-82 103 -110 246 -12 59 -12 1373 0 1425 5 22 14 61 19 87 13 60 62 139 110
178 96 75 279 104 456 72z m-2387 -29 c8 -11 11 -30 8 -47 -3 -16 -6 -68 -6
-117 0 -74 -3 -90 -17 -97 -10 -5 -108 -6 -218 -2 -110 3 -204 4 -210 3 -6 -2
-10 -114 -10 -309 l0 -306 202 4 c111 3 208 1 216 -3 11 -7 14 -34 12 -131 -1
-68 -3 -129 -4 -137 -1 -12 -35 -13 -210 -9 -121 4 -213 2 -218 -3 -6 -6 -6
-36 0 -77 8 -57 4 -467 -5 -527 -3 -19 3 -20 219 -20 129 -1 227 -5 232 -10
12 -12 18 -246 7 -263 -11 -18 -756 -17 -756 1 -4 654 2 2062 9 2066 5 3 173
5 372 4 336 -2 365 -4 377 -20z m1573 10 c10 -10 14 -2046 4 -2063 -8 -13
-292 -13 -300 0 -10 16 -6 2051 4 2064 12 14 278 13 292 -1z m1753 -3 c5 -5
12 -39 17 -77 8 -68 23 -148 54 -278 8 -38 20 -99 26 -135 5 -36 14 -76 20
-90 5 -14 14 -63 19 -110 6 -47 17 -132 25 -190 8 -58 21 -154 29 -215 8 -60
22 -162 30 -225 9 -63 20 -153 26 -200 36 -289 33 -275 64 -278 l29 -4 -6 144
c-4 79 -11 175 -17 213 -5 39 -10 108 -10 155 0 47 -7 180 -14 295 -8 116 -18
354 -21 530 -3 176 -11 346 -16 377 -17 98 -14 99 154 96 l142 -3 0 -1035 0
-1035 -231 -3 c-197 -2 -233 0 -244 13 -7 8 -16 43 -20 78 -5 34 -15 96 -23
137 -8 41 -20 102 -26 135 -7 33 -16 79 -21 102 -5 23 -13 68 -16 100 -4 32
-11 66 -16 76 -5 10 -13 59 -19 110 -5 51 -16 148 -24 217 -9 69 -20 169 -25
222 -5 54 -13 131 -19 170 -15 106 -33 271 -40 362 -5 60 -10 82 -23 90 -13 8
-21 7 -32 -4 -16 -16 -11 -176 14 -520 13 -187 39 -861 43 -1100 l2 -185 -143
0 -143 0 0 1034 c-1 690 2 1035 9 1040 15 9 436 1 446 -9z m-4584 -8 c138 -34
220 -118 265 -273 14 -49 15 -138 13 -775 -2 -533 -6 -724 -15 -739 -6 -11
-14 -31 -17 -45 -9 -42 -65 -117 -114 -154 -28 -20 -78 -42 -123 -55 -71 -20
-97 -21 -350 -19 l-274 3 -2 1020 c0 561 1 1028 4 1038 4 17 22 18 286 14 159
-2 302 -8 327 -15z m1301 -359 c6 -16 7 -63 3 -120 -4 -57 -2 -134 6 -201 10
-83 10 -113 1 -130 -16 -30 -32 -28 -82 14 l-43 35 -105 -3 c-72 -3 -116 0
-137 9 -30 12 -32 16 -39 81 -10 99 2 263 21 283 13 14 38 17 145 18 126 2
170 9 184 30 12 20 35 11 46 -16z m587 -5 c15 -21 24 -103 27 -250 1 -124 0
-138 -15 -138 -10 0 -30 19 -46 42 -29 41 -29 43 -28 172 1 72 6 143 12 159
12 29 33 35 50 15z m1636 -7 c14 -15 17 -45 20 -177 3 -175 9 -196 67 -249 53
-48 93 -60 201 -60 84 0 100 3 127 23 16 12 39 22 49 22 42 0 50 -150 12 -198
-15 -17 -25 -21 -45 -16 -15 4 -29 13 -32 20 -3 9 -20 14 -42 14 -20 1 -74 3
-121 6 -95 6 -227 -10 -251 -32 -13 -12 -18 -10 -37 15 -20 28 -21 39 -21 301
0 234 2 277 17 311 19 43 31 48 56 20z m-1104 -431 c9 -21 11 -70 6 -171 -3
-78 -8 -144 -11 -147 -8 -9 -26 13 -59 72 -17 30 -49 80 -71 111 l-39 57 28
22 c16 11 42 35 60 53 40 41 70 42 86 3z m-957 -302 c25 -39 21 -53 -21 -85
-70 -51 -111 -106 -121 -159 -5 -27 -7 -112 -4 -188 2 -77 2 -150 -1 -162 l-6
-23 -64 28 c-59 27 -107 34 -131 19 -18 -10 -176 8 -190 23 -11 11 -14 53 -15
174 -1 88 -1 165 -1 171 1 5 11 21 22 33 21 22 27 23 108 17 47 -3 103 -2 123
3 53 13 153 114 168 171 6 23 16 52 22 65 l11 24 41 -42 c23 -23 49 -54 59
-69z m411 -204 c32 -31 38 -58 43 -194 l5 -138 -26 -17 c-63 -41 -80 4 -72
195 7 168 14 190 50 154z m1689 -206 c14 -21 -1 -123 -21 -149 -13 -15 -24
-19 -43 -14 -40 10 -50 50 -36 155 l11 89 40 -33 c22 -18 44 -39 49 -48z"/>
<path d="M910 7564 c-8 -8 -9 -24 -5 -41 9 -33 8 -1404 -1 -1438 -9 -35 17
-42 129 -36 95 6 100 7 127 37 l28 32 7 308 c4 170 5 480 1 689 -8 411 -8 410
-64 438 -41 21 -207 29 -222 11z m169 -172 c6 -21 10 -54 10 -73 -1 -18 -1
-70 0 -114 0 -44 -2 -87 -6 -95 -5 -13 -4 -151 2 -285 1 -22 -1 -96 -5 -165
-5 -69 -4 -129 0 -135 4 -5 8 -72 9 -148 1 -122 -1 -142 -18 -163 -18 -23 -19
-23 -35 -5 -14 16 -17 39 -16 133 0 62 1 124 1 138 0 14 1 81 3 150 1 69 -1
145 -5 170 -4 25 -3 67 3 95 12 55 11 182 -2 204 -4 8 -4 26 0 40 3 14 4 69 0
121 -4 71 -2 104 9 133 18 47 37 47 50 -1z"/>
<path d="M7424 7969 c-140 -18 -281 -111 -344 -227 -11 -20 -24 -44 -29 -52
-30 -50 -48 -270 -40 -490 7 -183 16 -244 49 -322 21 -49 74 -133 91 -143 5
-4 9 -19 9 -34 0 -21 -14 -41 -54 -79 -29 -28 -64 -72 -76 -97 -22 -45 -22
-54 -17 -233 3 -103 11 -214 17 -247 23 -117 109 -261 177 -295 15 -8 37 -22
48 -31 80 -67 358 -88 537 -41 72 19 238 135 238 166 0 5 9 19 19 30 54 58 88
246 84 461 -5 260 -33 393 -107 498 -83 118 -89 133 -58 144 19 7 28 14 96 79
40 37 51 56 58 93 10 53 10 43 3 181 -7 129 -1 170 25 170 10 0 22 -4 25 -10
3 -5 25 -10 48 -10 45 0 110 -19 129 -38 10 -10 13 -750 5 -1317 -2 -99 1
-214 6 -255 8 -69 12 -78 50 -118 60 -63 87 -73 197 -79 110 -6 143 4 204 63
78 76 73 14 71 899 -1 539 2 796 9 808 6 9 20 17 31 17 12 0 25 4 30 9 6 5 35
12 66 16 45 6 58 4 69 -10 12 -14 14 -105 15 -541 0 -288 4 -526 7 -529 3 -4
3 -19 -2 -34 -10 -35 6 -313 21 -366 41 -144 145 -261 279 -314 102 -39 395
-44 496 -8 112 41 189 97 232 170 27 44 61 34 93 -29 30 -60 92 -125 136 -143
38 -16 45 -16 344 -9 192 4 242 8 269 21 18 10 42 17 52 17 11 0 31 9 45 20
14 11 32 20 40 20 22 0 124 107 132 138 4 14 15 30 24 36 29 18 51 -5 58 -61
8 -62 28 -93 97 -149 56 -45 78 -51 182 -46 102 5 117 11 180 71 52 50 60 62
60 94 0 20 5 39 11 43 6 3 9 14 6 24 -2 10 0 24 5 31 7 11 11 10 21 -5 42 -65
104 -139 135 -161 83 -57 114 -75 138 -79 14 -3 40 -9 57 -15 80 -25 384 -18
422 9 6 4 21 10 35 13 55 13 147 84 194 150 25 35 46 67 46 71 0 3 9 25 19 49
36 80 42 163 43 642 1 522 -1 768 -7 922 0 23 -4 46 -8 49 -4 4 -7 17 -7 29 0
44 -80 183 -133 230 -66 60 -148 107 -217 125 -68 17 -362 19 -382 3 -7 -6
-38 -18 -70 -28 -31 -9 -62 -23 -69 -31 -7 -8 -25 -22 -40 -30 -40 -20 -149
-150 -156 -185 -8 -41 -19 -36 -27 14 -3 23 -9 58 -12 79 -7 45 -87 138 -140
163 -31 15 -52 16 -133 11 -109 -9 -132 -18 -188 -79 -48 -52 -66 -105 -67
-197 -1 -63 -18 -88 -24 -35 -2 14 -7 25 -12 25 -5 0 -10 7 -12 15 -7 33 -124
157 -177 188 -103 60 -149 68 -424 73 -115 2 -212 6 -217 9 -19 12 -125 -25
-143 -50 -18 -24 -69 -55 -92 -55 -7 0 -36 22 -65 49 -29 27 -64 53 -79 57
-14 4 -72 8 -128 8 l-103 1 -65 -65 c-38 -38 -65 -73 -65 -85 0 -12 -3 -25 -7
-30 -5 -6 -6 -134 -3 -285 10 -488 5 -1107 -8 -1122 -8 -10 -8 -18 -1 -25 5
-5 9 -47 7 -98 -2 -71 -6 -90 -20 -99 -25 -16 -52 4 -56 40 -4 41 -5 1333 -2
1486 3 108 1 131 -13 146 -10 10 -17 23 -17 28 0 5 -23 30 -52 57 -36 32 -61
47 -82 49 -36 1 -75 5 -96 9 -41 8 -117 -15 -157 -47 -49 -40 -66 -42 -113
-12 -60 38 -103 51 -165 51 -303 -3 -413 -3 -559 -1 l-170 3 -68 -65 c-37 -36
-68 -71 -68 -78 0 -6 -9 -16 -20 -22 -16 -9 -26 -7 -49 9 -16 11 -35 31 -43
43 -9 13 -53 42 -99 66 -73 36 -98 43 -184 52 -103 11 -162 10 -251 -1z m261
-104 c175 -31 242 -87 305 -255 18 -48 27 -520 10 -530 -15 -9 -262 -6 -278 4
-10 6 -11 52 -6 194 10 268 -11 326 -117 333 -83 5 -108 0 -139 -28 -24 -23
-32 -41 -40 -93 -13 -84 -13 -190 1 -326 16 -163 25 -174 184 -209 211 -47
296 -93 348 -190 54 -100 84 -287 72 -450 -4 -55 -9 -140 -11 -188 -2 -50 -11
-101 -19 -117 -8 -16 -15 -35 -15 -43 0 -8 -20 -42 -44 -75 -61 -82 -132 -117
-272 -132 -205 -22 -374 21 -447 113 -81 103 -92 155 -92 447 l0 245 130 0
c72 0 137 -3 146 -7 14 -6 16 -29 11 -196 -5 -212 4 -283 45 -318 46 -42 183
-42 221 0 33 36 42 84 42 227 0 240 -25 343 -88 367 -35 14 -207 62 -222 62
-12 0 -61 20 -119 48 -61 30 -123 112 -151 199 -24 76 -25 85 -23 345 1 282 6
312 58 415 36 72 165 151 248 154 18 1 43 5 57 9 39 13 118 11 205 -5z m4863
-1 c82 -15 172 -54 212 -92 24 -22 75 -111 83 -142 3 -14 10 -43 16 -65 14
-52 16 -1444 2 -1495 -6 -19 -14 -52 -19 -72 -16 -63 -82 -150 -139 -184 -56
-33 -189 -64 -277 -64 -134 0 -267 36 -337 91 -46 36 -97 135 -112 214 -16 82
-16 1424 0 1515 22 130 100 229 211 268 123 43 228 51 360 26z m-3480 -21 c14
-27 4 -245 -11 -261 -10 -9 -41 -11 -136 -4 -67 4 -127 5 -132 1 -7 -4 -10
-309 -9 -902 1 -852 0 -896 -17 -900 -10 -3 -79 -4 -153 -3 l-135 1 -2 897
c-1 494 -4 901 -6 905 -3 5 -63 5 -134 1 -70 -4 -136 -5 -145 -2 -16 5 -18 20
-18 138 0 73 3 136 7 139 3 4 203 7 444 7 407 0 439 -1 447 -17z m461 -5 c4
-13 4 -79 -1 -148 -6 -71 -8 -444 -6 -868 l5 -742 28 -30 c55 -58 191 -50 240
14 l25 33 0 882 0 882 153 -3 152 -3 3 -835 c2 -576 0 -857 -8 -905 -30 -189
-88 -277 -219 -329 -70 -27 -250 -38 -357 -22 -111 17 -151 34 -206 88 -56 54
-74 84 -100 161 -20 61 -21 82 -23 932 -1 479 2 880 6 893 8 21 12 22 154 22
142 0 146 -1 154 -22z m1416 -5 c53 -14 115 -41 132 -59 8 -8 18 -14 23 -14
14 0 78 -94 95 -140 31 -85 44 -312 45 -780 1 -775 -19 -897 -162 -996 -93
-63 -130 -69 -453 -69 l-290 0 -3 1030 c-2 857 0 1032 11 1040 18 13 546 2
602 -12z m801 15 c3 -3 5 -471 5 -1039 l0 -1034 -153 0 -153 0 -3 1029 c-1
624 2 1033 7 1040 10 11 286 15 297 4z m-4157 -401 c9 -23 15 -82 11 -102 -6
-28 3 -211 11 -219 16 -17 10 -46 -9 -46 -26 0 -57 38 -70 85 -17 62 -7 263
14 286 22 25 33 24 43 -4z m-6 -962 c23 -63 36 -270 18 -303 -14 -27 -33 -28
-53 -4 -26 29 -32 99 -23 257 1 17 3 47 3 68 3 55 31 46 55 -18z m3738 -518
c-13 -13 -26 -3 -16 12 3 6 11 8 17 5 6 -4 6 -10 -1 -17z"/>
<path d="M12362 7611 c-18 -5 -41 -16 -52 -26 -48 -44 -48 -33 -46 -780 1
-648 2 -702 19 -732 24 -45 48 -55 131 -56 78 -1 107 10 134 50 16 25 17 78
17 743 0 667 -1 718 -18 743 -9 15 -27 33 -40 41 -28 19 -103 27 -145 17z m87
-160 c7 -12 11 -238 11 -630 1 -573 0 -612 -17 -636 -26 -36 -55 -29 -65 15
-12 61 -9 1156 4 1208 15 63 46 83 67 43z"/>
<path d="M10646 7571 c-6 -12 -4 -1521 2 -1524 4 -2 53 0 109 3 88 4 105 8
126 28 46 44 48 80 45 762 -3 696 -2 676 -63 710 -30 17 -212 34 -219 21z
m169 -192 c4 -16 7 -225 8 -464 2 -330 -1 -437 -10 -446 -9 -9 -10 -16 -1 -26
6 -8 11 -56 11 -119 0 -95 -2 -108 -22 -127 l-22 -22 -19 25 c-17 23 -18 38
-13 180 3 85 6 173 6 195 1 96 -1 409 -3 505 -6 251 -4 328 10 344 12 15 14
15 31 0 10 -9 21 -29 24 -45z"/>
</g>
</svg>
