<?xml version="1.0" standalone="no"?>
<!DOCTYPE svg PUBLIC "-//W3C//DTD SVG 20010904//EN"
 "http://www.w3.org/TR/2001/REC-SVG-20010904/DTD/svg10.dtd">
<svg version="1.0" xmlns="http://www.w3.org/2000/svg"
 width="300.000000pt" height="150.000000pt" viewBox="0 0 300.000000 150.000000"
 preserveAspectRatio="xMidYMid meet">
<metadata>
Created by potrace 1.10, written by Peter Selinger 2001-2011
</metadata>
<g transform="translate(0.000000,150.000000) scale(0.100000,-0.100000)"
fill="#ffffff" stroke="none">
<path d="M514 1408 c-52 -7 -94 -42 -94 -77 0 -21 36 -61 55 -61 19 0 19 -40
2 -98 -15 -49 -27 -46 -27 7 -1 53 -67 180 -109 208 -29 20 -47 23 -121 23
-74 0 -90 -3 -105 -20 -16 -17 -17 -26 -6 -77 15 -77 14 -267 -3 -329 -17 -65
-2 -100 47 -109 25 -5 142 -2 209 4 3 1 21 13 38 28 28 23 34 25 44 12 36 -46
124 -64 170 -34 35 23 33 45 -8 94 -34 41 -40 73 -22 129 8 23 50 44 72 35 38
-14 45 -106 14 -179 l-21 -47 23 -25 c21 -22 28 -23 78 -17 30 5 64 7 75 7
112 -8 120 -7 137 14 13 16 16 35 12 95 -4 68 -3 76 20 104 l25 29 11 -29 c9
-24 8 -44 -4 -96 -20 -85 -20 -84 6 -109 29 -27 87 -26 123 2 26 21 28 21 59
4 44 -23 209 -26 251 -4 25 14 32 14 51 1 34 -22 133 -14 149 12 10 15 10 27
3 45 -22 51 -27 120 -10 120 10 0 28 -56 37 -113 10 -62 72 -99 130 -77 13 5
53 7 88 3 59 -5 65 -4 81 18 21 31 20 40 -8 81 -22 34 -40 98 -26 98 4 0 13
-18 20 -41 8 -22 25 -49 38 -60 25 -19 82 -26 82 -10 0 5 7 11 15 15 13 4 13
2 5 -14 -37 -68 51 -131 118 -85 15 12 27 13 40 6 31 -16 232 -21 269 -6 23
10 33 10 36 2 5 -17 215 -17 255 1 95 42 93 235 -4 301 l-35 24 30 13 c18 7
32 22 35 36 14 64 10 85 -23 119 -29 28 -32 29 -130 29 -88 0 -104 -3 -121
-20 -11 -11 -20 -25 -20 -30 0 -6 -12 4 -28 21 l-28 31 -112 -1 c-82 -1 -119
-5 -136 -16 -20 -13 -25 -13 -42 0 -23 17 -77 19 -107 4 -30 -15 -56 -50 -57
-74 -1 -15 -6 -11 -20 16 -27 51 -42 60 -108 66 -55 5 -60 4 -80 -22 l-22 -28
-26 27 c-26 25 -30 26 -150 26 -112 0 -126 -2 -145 -21 -13 -13 -18 -27 -14
-37 10 -23 19 -209 11 -201 -8 7 -14 48 -22 144 -10 107 -22 116 -152 113 -95
-3 -106 -5 -119 -25 l-15 -22 -23 27 c-20 23 -31 27 -75 26 -38 -1 -57 -6 -72
-22 -20 -20 -21 -23 -6 -69 19 -59 14 -73 -23 -73 -33 0 -35 8 -17 74 11 40
10 47 -7 66 -14 16 -30 20 -76 20 -52 0 -61 -3 -75 -25 -14 -21 -15 -31 -5
-51 6 -14 11 -66 10 -117 0 -100 -7 -97 -32 18 -21 92 -42 141 -70 159 -25 17
-140 25 -213 14z m630 -31 c15 -11 16 -18 6 -60 -8 -30 -11 -109 -8 -227 3
-178 3 -181 -18 -186 -12 -3 -35 -4 -50 -2 -33 3 -33 9 -13 114 10 50 10 68
-1 93 -23 57 -73 64 -83 12 -4 -16 -14 -31 -24 -33 -17 -5 -18 -12 -12 -89 4
-46 7 -84 6 -85 -12 -8 -86 -11 -96 -4 -12 7 -13 15 -2 47 9 27 11 88 8 208
-2 94 -6 179 -8 190 -4 18 1 20 51 20 53 0 55 -1 52 -25 -2 -14 -5 -50 -5 -79
l-2 -55 55 3 c30 1 59 6 63 10 8 8 -2 76 -18 128 -6 19 -3 22 27 26 18 2 38 5
44 5 5 1 18 -4 28 -11z m-819 -17 c60 -37 124 -233 109 -334 -9 -57 -46 -103
-92 -115 -60 -14 -185 -13 -207 2 -17 14 -18 16 -2 56 23 56 24 304 2 357 -8
20 -12 40 -9 45 3 5 42 9 86 9 63 0 88 -4 113 -20z m389 4 c26 -25 32 -42 64
-174 36 -153 49 -268 30 -274 -33 -11 -104 -15 -116 -8 -11 7 -9 18 9 53 35
65 25 172 -19 205 -23 18 -47 17 -82 -1 -68 -35 -79 -139 -21 -199 17 -17 31
-37 31 -44 0 -29 -115 -27 -137 4 -14 19 -10 48 33 232 18 79 30 150 27 158
-7 19 -30 18 -41 -3 -12 -21 -42 -10 -42 16 0 38 37 51 147 51 79 0 105 -3
117 -16z m738 -64 c4 -41 11 -97 17 -125 34 -176 35 -185 18 -220 -20 -42 -54
-53 -162 -48 -153 7 -166 39 -110 283 8 36 15 90 15 121 0 31 3 59 7 63 4 4
52 5 107 4 l101 -3 7 -75z m337 63 c5 -10 12 -48 16 -85 l7 -67 -35 -33 -36
-33 54 -110 c48 -100 52 -111 37 -123 -18 -14 -66 -9 -88 9 -8 6 -16 27 -20
48 -21 121 -46 160 -83 127 -26 -24 -29 -110 -5 -144 23 -33 10 -42 -58 -42
l-60 0 7 28 c13 45 17 347 6 388 -6 20 -8 41 -5 46 3 4 61 8 129 8 108 0 126
-2 134 -17z m198 2 c14 -10 28 -41 42 -97 31 -118 30 -115 41 -98 6 8 10 35
10 60 1 65 16 122 37 138 10 7 36 12 58 10 l40 -3 1 -90 c0 -49 6 -112 12
-140 44 -200 36 -245 -47 -245 -44 0 -52 16 -30 64 16 36 17 58 12 163 -9 174
-27 195 -44 52 -24 -196 -21 -184 -54 -184 -26 0 -33 6 -52 45 -12 25 -26 74
-31 110 -22 141 -49 154 -59 28 -7 -98 2 -158 33 -204 33 -49 26 -64 -31 -64
-40 0 -47 3 -56 26 -9 25 2 224 17 311 3 17 1 48 -6 68 -6 20 -9 42 -6 50 7
20 85 20 113 0z m537 -7 c15 -22 22 -78 10 -78 -3 0 -20 12 -37 26 -55 46
-127 13 -127 -58 0 -42 18 -50 54 -23 31 24 60 18 80 -16 26 -44 16 -60 -36
-53 -63 8 -80 -9 -86 -84 -4 -51 -1 -63 17 -81 46 -46 103 -13 74 42 -17 34
-16 35 24 43 47 9 63 -15 63 -92 0 -61 -1 -65 -27 -75 -37 -14 -253 -1 -253
15 0 6 7 29 15 51 18 51 10 325 -11 366 -7 15 -10 29 -7 33 4 3 57 6 119 6
105 0 114 -1 128 -22z m300 3 c12 -13 16 -32 14 -62 -3 -43 -4 -44 -38 -44
-31 0 -35 3 -38 30 -5 40 -14 47 -46 39 -32 -8 -51 -46 -37 -73 5 -9 42 -34
81 -56 95 -52 125 -100 117 -182 -4 -42 -12 -63 -31 -81 -23 -24 -31 -25 -131
-25 -134 1 -139 4 -124 93 10 68 26 90 65 90 30 0 38 -14 24 -41 -28 -50 20
-104 66 -74 39 25 48 61 28 113 -20 52 -64 77 -120 66 -58 -11 -65 4 -58 110
3 50 7 97 9 104 3 8 33 12 103 12 84 0 101 -3 116 -19z m-1627 -83 c-8 -89
-11 -105 -21 -115 -10 -10 -3 158 8 175 15 25 19 10 13 -60z m653 -81 c-6 -50
-11 -110 -13 -132 l-2 -40 -17 31 c-10 17 -14 34 -11 38 4 3 2 6 -4 6 -17 0
-24 44 -10 55 38 29 49 64 43 133 -5 65 -5 66 9 34 13 -27 13 -48 5 -125z
m419 20 c1 -53 -2 -77 -8 -67 -9 14 -14 79 -12 145 3 65 18 1 20 -78z m201 63
c0 -4 -8 -10 -17 -13 -10 -2 -26 -8 -35 -12 -13 -5 -18 -2 -18 9 0 9 10 20 23
25 23 9 47 4 47 -9z m260 1 c0 -5 3 -18 7 -28 6 -16 5 -16 -10 -4 -19 15 -23
41 -7 41 6 0 10 -4 10 -9z m-167 -63 c-1 -54 2 -64 23 -80 20 -16 22 -22 11
-39 -12 -20 -37 -26 -37 -9 0 12 -63 24 -87 16 -30 -9 -44 -41 -33 -72 12 -32
6 -42 -15 -24 -19 15 -18 95 1 111 7 6 26 8 43 4 60 -13 94 31 66 85 -15 30
-15 33 1 51 9 10 20 19 23 19 3 0 5 -28 4 -62z m166 -112 c32 -38 29 -106 -4
-106 -22 0 -26 15 -13 51 9 25 9 34 0 37 -14 4 -16 32 -3 32 5 0 14 -6 20 -14z"/>
<path d="M244 1299 c-24 -26 -32 -167 -15 -245 23 -101 88 -112 110 -17 21 90
-21 283 -63 283 -7 0 -21 -9 -32 -21z m50 -59 c20 -49 25 -205 8 -222 -16 -16
-42 7 -37 33 2 10 1 19 -3 19 -4 0 -8 38 -10 85 -5 127 12 160 42 85z"/>
<path d="M606 1289 c-31 -36 -36 -75 -8 -64 9 4 32 11 50 17 33 9 39 25 22 59
-15 27 -34 24 -64 -12z"/>
<path d="M1310 1306 c-18 -23 -39 -124 -40 -194 0 -95 36 -150 87 -131 26 10
38 31 46 82 8 53 -11 207 -29 234 -17 26 -46 30 -64 9z m50 -67 c13 -47 16
-174 6 -207 -10 -32 -41 -28 -56 8 -13 30 -7 180 7 203 4 7 8 15 9 20 3 15 4
17 14 17 5 0 14 -18 20 -41z"/>
<path d="M1648 1310 c-10 -6 -20 -27 -23 -48 -3 -20 -8 -46 -10 -57 -2 -11 0
-27 5 -34 7 -12 17 -7 55 23 43 36 46 41 43 80 -3 36 -6 41 -28 43 -14 2 -33
-2 -42 -7z m42 -41 c0 -17 -20 -49 -30 -49 -11 0 -14 43 -3 53 10 11 33 8 33
-4z"/>
<path d="M128 772 c-49 -6 -51 -16 -51 -262 -1 -279 -3 -272 109 -267 59 4 78
9 108 32 26 20 36 23 36 12 0 -29 30 -41 115 -43 70 -1 87 1 100 16 16 18 18
18 51 -2 25 -15 46 -19 81 -16 66 6 76 10 94 36 l16 24 7 -26 c12 -48 98 -46
122 3 9 18 14 20 20 9 30 -49 123 -64 180 -29 31 19 32 19 53 0 25 -23 68 -25
92 -3 17 15 19 15 35 0 20 -20 88 -20 122 1 22 13 22 16 22 246 0 174 -3 238
-13 251 -16 22 -72 24 -96 2 -16 -15 -19 -15 -31 -1 -17 20 -108 20 -138 0
-19 -14 -24 -14 -46 0 -54 35 -146 22 -180 -26 -13 -20 -16 -21 -16 -6 0 50
-85 66 -117 23 l-18 -24 -26 24 c-32 31 -105 40 -155 19 -18 -7 -34 -19 -34
-25 0 -6 -10 -2 -22 10 -18 17 -35 20 -104 20 -85 0 -114 -12 -114 -46 0 -11
-9 -6 -29 13 -24 24 -39 30 -82 32 -29 1 -55 3 -58 4 -3 2 -18 1 -33 -1z m613
-51 c26 -26 29 -36 29 -90 l0 -61 -35 0 -34 0 -3 58 c-3 54 -5 57 -30 60 -24
3 -28 -1 -34 -32 -8 -44 3 -106 19 -111 7 -2 25 -6 40 -10 16 -3 40 -17 53
-30 21 -21 24 -33 24 -105 0 -73 -3 -83 -25 -105 -19 -20 -34 -25 -73 -25 -76
0 -95 21 -100 109 l-4 71 34 0 35 0 -5 -48 c-3 -37 0 -53 13 -65 18 -19 24
-20 42 -9 13 8 18 43 15 100 -2 33 -3 34 -78 62 -17 6 -36 23 -43 36 -15 34
-14 166 2 186 38 48 115 52 158 9z m352 18 c33 -15 47 -49 47 -114 l0 -55 -36
0 c-31 0 -35 2 -29 20 4 12 4 39 0 61 -6 36 -10 40 -33 37 l-27 -3 -3 -176
c-2 -154 0 -177 13 -183 33 -12 55 12 55 59 0 38 -3 45 -20 45 -16 0 -20 7
-20 30 0 30 0 30 56 30 l57 0 -7 -52 c-3 -29 -6 -68 -6 -86 0 -51 -37 -82 -98
-82 -34 0 -57 6 -73 19 -23 19 -24 23 -27 210 l-3 191 30 30 c32 33 79 40 124
19z m-823 -9 c10 -5 23 -24 29 -41 15 -42 14 -316 0 -359 -15 -41 -58 -60
-139 -60 l-60 0 0 235 0 235 76 0 c41 0 84 -4 94 -10z m260 -20 c0 -30 -1 -30
-52 -30 l-53 0 0 -70 0 -70 48 0 c46 0 47 -1 47 -30 0 -29 -1 -30 -47 -30
l-48 0 0 -75 0 -75 53 0 c51 0 52 0 52 -30 l0 -30 -85 0 -85 0 0 235 0 235 85
0 85 0 0 -30z m360 -205 l0 -235 -35 0 -35 0 0 235 0 235 35 0 35 0 0 -235z
m413 153 c9 -46 23 -137 32 -202 8 -66 18 -122 21 -125 6 -7 -6 390 -13 402
-2 4 12 7 31 7 l36 0 0 -236 0 -235 -52 3 -52 3 -17 85 c-10 47 -23 138 -30
203 -14 141 -34 172 -25 41 3 -49 8 -144 12 -211 l6 -123 -36 0 -36 0 0 235 0
235 54 0 53 0 16 -82z m-765 -51 c1 -26 -3 -45 -8 -42 -5 3 -24 6 -43 7 -33 1
-35 3 -31 36 3 40 11 47 52 47 29 0 30 -1 30 -48z m142 36 c0 -5 -5 -15 -10
-23 -8 -12 -10 -11 -10 8 0 12 5 22 10 22 6 0 10 -3 10 -7z m370 -20 c-4 -54
0 -73 15 -73 8 0 15 -4 15 -9 0 -6 12 -6 32 0 18 5 34 9 35 9 2 0 3 -8 3 -17
0 -15 -8 -18 -52 -16 -29 1 -56 2 -59 2 -5 1 -5 117 0 129 5 12 12 -4 11 -25z
m-260 -88 c0 -8 -4 -15 -9 -15 -13 0 -22 16 -14 24 11 11 23 6 23 -9z m-232
-72 c-16 -17 -22 -35 -21 -62 l2 -39 -40 2 c-33 1 -39 4 -40 24 -1 12 -2 30
-3 40 -1 13 9 18 44 22 25 3 44 7 43 10 -1 3 0 15 4 28 4 18 8 20 20 11 11
-10 10 -16 -9 -36z m122 -78 c0 -8 -4 -15 -10 -15 -5 0 -10 7 -10 15 0 8 5 15
10 15 6 0 10 -7 10 -15z m366 -22 c-11 -11 -17 4 -9 23 7 18 8 18 11 1 2 -10
1 -21 -2 -24z"/>
<path d="M170 506 l0 -176 24 0 c43 0 47 17 44 186 l-3 159 -32 3 -33 3 0
-175z m37 122 c-3 -8 -6 -5 -6 6 -1 11 2 17 5 13 3 -3 4 -12 1 -19z m0 -85
c-2 -16 -4 -5 -4 22 0 28 2 40 4 28 2 -13 2 -35 0 -50z m0 -165 c-3 -8 -6 -5
-6 6 -1 11 2 17 5 13 3 -3 4 -12 1 -19z"/>
<path d="M1625 761 c-27 -12 -45 -29 -54 -51 -18 -42 -15 -163 5 -202 13 -25
13 -30 -1 -44 -10 -10 -15 -34 -15 -70 0 -103 41 -154 124 -154 96 0 137 47
137 158 0 45 -6 81 -17 105 -16 34 -16 38 -1 55 10 11 17 35 17 60 0 43 5 48
30 32 12 -7 14 -40 13 -188 -2 -166 0 -181 18 -201 11 -11 28 -21 39 -21 27 0
70 21 70 34 0 6 1 93 1 194 0 152 2 182 14 182 8 0 18 0 22 0 3 0 7 -71 8
-157 1 -178 10 -214 61 -238 59 -28 163 -11 177 27 3 9 12 4 26 -14 21 -26 25
-27 97 -23 72 3 124 22 124 45 0 6 5 10 10 10 6 0 10 -6 10 -14 0 -19 22 -35
58 -42 25 -5 35 -1 55 20 21 23 27 25 39 13 37 -38 118 -49 167 -24 54 27 61
58 62 256 0 168 -2 185 -21 216 -23 37 -77 59 -121 51 -13 -3 -32 -5 -41 -5
-10 -1 -26 -11 -38 -23 l-20 -22 -23 22 c-33 31 -107 28 -107 -3 0 -25 -20
-27 -39 -3 -16 20 -30 23 -99 26 -51 3 -88 0 -103 -8 -17 -10 -24 -10 -27 -1
-5 15 -73 14 -93 -2 -9 -7 -18 -19 -22 -27 -4 -13 -6 -12 -6 1 -1 23 -23 39
-52 39 -13 0 -83 0 -156 1 -117 0 -132 -2 -141 -18 -10 -17 -12 -17 -41 0 -46
27 -99 30 -146 8z m138 -40 c16 -15 22 -37 25 -86 l4 -65 -35 0 -36 0 -3 58
c-3 51 -5 57 -27 60 -31 5 -41 -12 -41 -68 0 -59 8 -70 66 -89 64 -21 76 -44
72 -144 -3 -69 -6 -81 -27 -98 -36 -29 -115 -26 -146 6 -22 21 -25 33 -25 90
l0 65 30 0 c30 0 30 -1 30 -55 0 -43 4 -56 19 -65 40 -21 52 -3 49 68 l-3 66
-50 18 c-27 10 -56 25 -62 35 -16 21 -17 166 -2 194 6 11 20 24 32 29 35 15
107 5 130 -19z m1087 14 c16 -8 31 -23 34 -32 6 -23 11 -194 8 -301 -2 -73 -5
-86 -27 -107 -35 -36 -115 -36 -150 0 -25 24 -25 26 -25 204 0 189 6 221 44
239 31 16 83 14 116 -3z m-820 -25 c0 -28 -3 -30 -35 -30 l-35 0 0 -205 0
-205 -35 0 -36 0 3 205 3 205 -32 0 c-30 0 -33 3 -33 30 l0 30 100 0 100 0 0
-30z m100 -170 c0 -187 1 -200 19 -210 11 -5 27 -7 35 -4 14 5 16 34 16 210
l0 204 35 0 35 0 0 -200 c0 -255 -6 -270 -105 -270 -32 0 -52 7 -72 24 l-28
24 -3 211 -4 211 36 0 36 0 0 -200z m361 181 c23 -19 24 -24 27 -204 3 -183 3
-185 -21 -213 -23 -26 -32 -29 -101 -32 l-76 -4 0 236 0 236 74 0 c58 0 79 -4
97 -19z m149 -216 l0 -235 -35 0 -35 0 0 235 0 235 35 0 35 0 0 -235z m-473
53 c-2 -29 -3 -6 -3 52 0 58 1 81 3 53 2 -29 2 -77 0 -105z m-476 59 c-8 -8
-11 -3 -11 19 1 25 2 27 11 11 8 -14 8 -22 0 -30z m476 -139 c-3 -8 -6 -5 -6
6 -1 11 2 17 5 13 3 -3 4 -12 1 -19z m0 -90 c-2 -13 -4 -5 -4 17 -1 22 1 32 4
23 2 -10 2 -28 0 -40z m-475 17 c3 -14 1 -28 -3 -31 -5 -3 -9 9 -9 25 0 38 6
40 12 6z"/>
<path d="M2763 678 c-4 -7 -7 -86 -8 -176 0 -134 3 -164 15 -172 21 -13 26
-12 44 6 13 13 16 43 16 169 0 84 -3 160 -6 169 -7 19 -50 21 -61 4z m37 -85
c0 -25 -3 -43 -7 -39 -11 10 -11 86 -1 86 4 0 8 -21 8 -47z m0 -68 c0 -8 -4
-15 -10 -15 -5 0 -10 7 -10 15 0 8 5 15 10 15 6 0 10 -7 10 -15z m0 -115 c0
-27 -4 -50 -9 -50 -8 0 -12 79 -4 93 9 16 13 5 13 -43z"/>
<path d="M2387 509 c1 -94 4 -174 7 -176 3 -3 17 -2 31 1 l25 7 -2 167 -3 167
-30 3 -30 3 2 -172z m41 85 c-2 -61 -15 -56 -17 6 0 31 3 49 9 45 6 -4 9 -26
8 -51z m2 -74 c0 -5 -5 -10 -11 -10 -5 0 -7 5 -4 10 3 6 8 10 11 10 2 0 4 -4
4 -10z m-4 -120 c1 -16 -3 -27 -7 -24 -14 8 -9 54 5 54 1 0 1 -13 2 -30z"/>
</g>
</svg>
