<?xml version="1.0" standalone="no"?>
<!DOCTYPE svg PUBLIC "-//W3C//DTD SVG 20010904//EN"
 "http://www.w3.org/TR/2001/REC-SVG-20010904/DTD/svg10.dtd">
<svg version="1.0" xmlns="http://www.w3.org/2000/svg"
 width="900.000000pt" height="450.000000pt" viewBox="0 0 900.000000 450.000000"
 preserveAspectRatio="xMidYMid meet">
<metadata>
Created by potrace 1.10, written by Peter Selinger 2001-2011
</metadata>
<g transform="translate(0.000000,450.000000) scale(0.100000,-0.100000)"
fill="#ffffff" stroke="none">
<path d="M1464 4249 c-118 -10 -145 -23 -235 -109 -46 -45 -60 -66 -75 -115
-10 -33 -19 -61 -20 -63 -1 -2 -26 23 -55 55 -102 110 -190 183 -222 183 -7 0
-37 9 -68 19 -47 16 -88 19 -276 19 -240 0 -240 0 -313 -60 -29 -24 -44 -47
-55 -84 -15 -50 -15 -52 20 -159 19 -60 35 -120 35 -134 0 -14 2 -171 5 -349
7 -366 0 -455 -44 -590 -43 -131 -42 -171 9 -239 49 -64 93 -88 180 -98 36 -4
75 -11 86 -16 13 -4 26 -3 33 4 7 7 71 11 193 10 160 -1 194 2 273 22 89 23
165 53 165 65 0 12 88 70 105 70 9 0 19 -9 22 -20 3 -11 10 -20 15 -20 6 0 26
-13 44 -30 65 -56 110 -72 229 -81 160 -11 256 15 312 86 15 19 35 35 44 35
17 0 59 -40 59 -56 0 -5 29 -22 66 -38 64 -28 67 -29 191 -21 69 3 143 13 165
21 57 20 95 17 153 -10 39 -18 65 -23 115 -21 147 5 201 23 262 91 56 62 62
84 42 173 -30 141 -32 156 -27 183 3 16 0 35 -7 43 -8 10 -9 19 -3 28 6 6 13
31 16 53 5 45 90 166 120 172 22 4 57 -79 57 -136 0 -25 -5 -73 -11 -106 -10
-61 -63 -242 -81 -282 -22 -47 37 -145 116 -192 49 -30 62 -33 133 -34 158 0
181 6 236 62 58 60 80 63 144 19 78 -54 158 -68 387 -71 352 -3 359 -2 447 53
56 36 84 36 132 3 68 -46 104 -53 243 -48 86 4 137 10 158 21 32 16 106 91
106 107 0 5 7 18 17 28 14 16 14 22 3 46 -7 15 -13 32 -12 38 1 6 -9 32 -23
58 -14 26 -25 57 -25 69 0 12 -6 33 -13 47 -17 32 -11 150 7 150 21 0 36 -23
36 -57 0 -18 7 -54 16 -80 16 -48 26 -111 28 -188 1 -29 7 -45 24 -58 12 -10
22 -24 22 -31 0 -21 111 -126 134 -126 11 -1 32 -7 46 -15 44 -25 169 -19 246
11 l65 27 62 -19 c44 -14 93 -19 169 -19 l106 0 58 41 c32 22 61 47 65 55 32
66 33 68 20 135 -6 37 -9 69 -6 72 3 4 31 -7 61 -23 51 -27 63 -30 148 -29
l93 1 -5 -47 c-6 -66 12 -112 63 -163 54 -54 110 -72 218 -70 66 1 89 6 141
32 72 35 77 36 119 17 74 -33 110 -37 342 -42 132 -3 245 -6 252 -9 6 -2 58 1
114 6 74 7 119 17 156 34 28 14 55 25 58 25 4 0 38 -14 76 -30 l69 -31 312 4
313 3 55 27 c50 24 122 88 198 177 l31 35 10 -28 c6 -16 11 -39 11 -53 0 -15
6 -24 15 -24 13 0 15 49 15 380 0 209 -4 380 -8 380 -18 0 -32 -26 -32 -57 0
-59 -27 -55 -85 12 -27 33 -83 94 -124 137 -63 66 -72 80 -61 93 7 8 19 15 28
15 18 0 73 59 109 120 25 40 27 54 28 140 0 82 -4 102 -27 152 -49 105 -149
179 -263 193 -33 4 -165 7 -294 6 -260 -1 -256 -1 -344 -78 -20 -18 -42 -33
-48 -33 -10 0 -33 17 -112 85 -9 8 -36 23 -60 33 -37 15 -80 17 -353 17 -291
0 -314 -2 -350 -20 -21 -11 -43 -26 -48 -33 -4 -8 -24 -21 -44 -29 -34 -14
-37 -14 -79 16 -74 53 -96 58 -219 50 -96 -5 -119 -10 -164 -35 -48 -26 -103
-82 -145 -147 -24 -37 -53 -32 -77 13 -64 117 -199 178 -401 182 -87 1 -100
-5 -190 -90 -54 -52 -59 -54 -83 -43 -15 6 -35 22 -45 35 -36 45 -104 77 -177
82 -138 9 -626 12 -654 4 -43 -13 -111 -60 -133 -94 -37 -54 -48 -55 -102 -5
-87 81 -90 83 -237 85 -515 10 -466 16 -560 -65 -53 -46 -74 -45 -112 5 -14
18 -46 47 -72 64 -44 29 -50 30 -156 30 -154 0 -175 -8 -261 -95 l-72 -73 -58
60 c-82 86 -121 100 -261 100 -132 -1 -165 -13 -239 -89 l-47 -47 5 -60 c2
-34 13 -87 25 -118 13 -34 22 -79 22 -115 0 -32 0 -72 0 -89 0 -35 -22 -70
-38 -60 -14 9 -62 165 -62 203 0 16 -4 33 -10 39 -5 5 -19 36 -30 68 -11 33
-39 84 -62 114 -44 57 -121 122 -145 122 -8 0 -28 7 -44 16 -24 12 -74 16
-247 18 -119 1 -263 -1 -318 -5z m1964 -104 c41 -20 51 -31 56 -58 6 -33 -6
-90 -24 -111 -37 -46 -58 -533 -25 -587 3 -4 -2 -53 -11 -110 -19 -121 -14
-314 11 -449 22 -122 20 -162 -8 -189 -23 -20 -31 -21 -162 -19 -136 3 -138 3
-158 30 -16 21 -18 35 -13 72 4 25 13 51 19 58 26 28 55 161 74 342 7 66 -35
202 -76 250 -22 25 -85 56 -113 56 -49 -1 -88 -56 -88 -123 0 -52 -30 -87 -75
-87 -17 0 -36 -5 -42 -11 -8 -8 -10 -66 -6 -198 5 -168 8 -191 29 -235 54
-112 24 -137 -178 -151 -89 -7 -100 -5 -132 14 -47 29 -54 66 -25 128 48 102
48 110 48 633 1 433 -1 502 -16 553 -9 31 -20 57 -25 57 -4 0 -12 18 -18 41
-18 64 1 84 87 92 101 10 203 8 246 -4 30 -8 42 -18 53 -44 13 -32 12 -37 -25
-109 -39 -74 -39 -76 -43 -204 -3 -143 3 -162 54 -162 16 0 45 7 65 15 51 21
131 22 170 2 18 -10 44 -17 58 -17 41 0 47 33 35 181 -10 111 -15 136 -41 184
-20 37 -29 69 -29 99 0 41 3 46 33 60 17 9 64 17 102 19 39 2 87 4 107 5 22 1
56 -8 86 -23z m-1491 3 l115 -12 41 -46 c46 -52 97 -140 97 -168 0 -10 4 -22
9 -27 5 -6 14 -32 20 -60 5 -27 17 -77 26 -110 10 -33 21 -82 27 -110 26 -136
41 -201 48 -210 4 -5 12 -35 18 -65 15 -78 32 -150 43 -186 5 -17 9 -68 10
-115 0 -46 5 -106 10 -134 22 -113 22 -157 -3 -205 l-23 -45 -85 -6 c-47 -4
-116 -12 -153 -18 -61 -10 -74 -9 -112 8 -24 11 -49 29 -55 41 -10 19 -7 29
27 77 49 70 49 70 71 123 47 113 49 148 22 330 -23 153 -64 230 -141 268 -34
17 -53 20 -113 15 -83 -7 -118 -26 -191 -104 -90 -97 -90 -96 -90 -255 0 -135
1 -143 28 -197 19 -37 55 -80 108 -128 72 -67 79 -77 79 -111 0 -34 -4 -39
-37 -54 -45 -19 -269 -22 -302 -5 -11 6 -28 11 -39 11 -11 0 -37 19 -57 42
l-38 41 7 106 c5 97 16 160 61 351 8 36 22 94 29 130 15 68 36 155 62 255 8
33 19 93 24 133 5 40 13 79 20 86 6 8 13 42 16 77 4 52 2 68 -13 84 -43 49
-88 39 -113 -25 -20 -52 -37 -65 -73 -56 -31 7 -77 73 -77 110 0 33 56 104
105 132 29 17 58 24 105 25 36 1 79 5 95 9 48 12 267 11 392 -2z m4018 -6
c100 -14 138 -33 169 -86 14 -24 26 -53 26 -64 0 -11 7 -33 15 -48 8 -16 15
-37 15 -47 0 -10 5 -27 10 -38 6 -10 15 -40 21 -66 26 -118 41 -192 49 -241 7
-46 32 -102 44 -102 3 0 13 15 24 33 20 33 24 67 41 337 9 153 29 217 86 277
l42 43 135 0 c130 0 135 -1 158 -25 l23 -25 -13 -129 c-14 -136 -9 -400 9
-476 6 -22 16 -67 24 -101 8 -33 17 -66 20 -72 4 -5 11 -48 16 -94 5 -45 18
-139 27 -208 30 -209 22 -285 -39 -353 l-33 -37 -128 0 c-119 0 -130 2 -152
23 -27 25 -32 81 -10 112 40 57 77 141 85 195 6 39 7 159 1 333 -11 317 -26
466 -48 485 -45 36 -59 -4 -76 -233 -12 -147 -21 -216 -37 -260 -22 -64 -30
-194 -16 -272 6 -38 4 -46 -24 -78 -29 -33 -35 -35 -92 -35 -82 0 -115 23
-161 115 -46 94 -66 140 -66 157 0 8 -5 19 -10 24 -13 13 -26 84 -44 234 -8
63 -21 142 -31 175 -9 33 -19 76 -22 95 -8 49 -31 80 -59 80 -18 0 -25 -7 -30
-27 -3 -16 -11 -44 -17 -63 -8 -23 -12 -131 -12 -325 0 -256 2 -297 19 -350
18 -57 64 -137 103 -180 67 -73 81 -125 44 -159 -16 -15 -41 -18 -148 -19
-182 -3 -196 8 -212 167 -10 98 -3 254 19 451 5 44 14 134 20 200 6 66 16 170
21 230 12 127 8 208 -15 250 -9 17 -16 35 -16 41 0 6 -7 25 -16 43 -23 45 -8
88 41 118 21 13 96 12 220 -5z m1722 3 c68 -24 100 -68 117 -160 4 -22 12 -54
18 -71 17 -49 -5 -94 -46 -94 -25 0 -43 12 -91 60 -33 34 -73 67 -89 75 -63
32 -168 7 -241 -57 -64 -56 -85 -105 -85 -193 0 -63 3 -75 25 -99 16 -17 32
-26 41 -22 9 3 21 6 27 6 7 0 27 14 45 31 37 35 137 89 165 89 32 0 72 -27
103 -72 76 -107 92 -173 52 -215 -25 -27 -64 -30 -97 -7 -14 10 -52 19 -92 22
-56 4 -75 1 -110 -17 -76 -40 -95 -75 -109 -203 -22 -189 7 -291 98 -348 60
-38 113 -40 164 -5 62 42 64 123 3 191 -40 45 -44 78 -12 105 18 15 39 18 120
19 110 0 126 -5 156 -53 18 -30 20 -50 21 -193 0 -87 1 -176 1 -196 1 -40 -13
-66 -52 -96 -22 -18 -43 -20 -229 -21 -113 -1 -285 0 -384 2 l-178 3 -24 27
c-31 36 -30 50 7 122 17 33 35 80 41 105 15 61 22 406 9 450 -5 19 -13 163
-17 320 -5 227 -9 293 -22 323 -9 20 -19 37 -23 37 -4 0 -12 15 -19 34 -12 36
-5 81 14 94 13 8 237 18 481 20 128 1 181 -2 212 -13z m-6857 -37 c90 -44 151
-111 209 -230 28 -57 51 -109 51 -115 0 -5 12 -32 26 -59 36 -67 54 -124 64
-202 20 -148 31 -219 41 -267 15 -71 -6 -301 -33 -355 -26 -54 -82 -146 -102
-168 -25 -28 -69 -51 -121 -62 -22 -5 -61 -14 -86 -20 -29 -7 -143 -10 -315
-8 -263 3 -270 4 -302 26 -28 21 -32 29 -32 71 0 31 5 53 15 61 8 7 15 18 15
24 0 6 7 24 15 39 31 60 39 176 40 557 0 400 -8 509 -46 587 -11 23 -25 45
-30 49 -17 10 -9 56 13 79 21 22 25 22 272 21 l251 -1 55 -27z m3390 17 c63
-1 127 -6 141 -12 37 -16 52 -63 37 -121 -13 -52 4 -238 29 -307 7 -22 16 -85
19 -140 4 -66 14 -124 29 -170 41 -121 48 -156 81 -406 8 -62 -19 -170 -58
-229 -29 -44 -87 -90 -112 -90 -6 0 -18 -6 -25 -12 -20 -21 -518 -16 -593 5
-86 24 -132 58 -183 136 -34 51 -40 124 -20 276 9 72 20 157 24 190 4 33 18
89 31 125 44 124 80 375 79 556 -1 217 -1 218 236 208 94 -4 222 -8 285 -9z
m1215 -5 c37 -23 52 -56 54 -115 1 -62 12 -134 27 -195 8 -30 14 -88 14 -130
0 -72 -1 -77 -38 -118 -20 -24 -68 -67 -107 -95 -40 -30 -71 -61 -73 -73 -2
-11 10 -35 27 -54 34 -40 84 -134 106 -203 15 -44 123 -282 145 -317 34 -55
51 -103 46 -125 -4 -14 -24 -37 -46 -51 -36 -24 -47 -26 -111 -22 -39 3 -76
11 -82 17 -6 6 -23 11 -38 11 -33 0 -89 52 -89 81 0 11 -4 28 -10 38 -5 10
-14 46 -20 79 -5 34 -15 90 -21 124 -5 34 -14 67 -19 73 -4 5 -11 28 -15 50
-17 108 -42 153 -97 176 -42 17 -84 -7 -128 -74 -35 -51 -35 -53 -33 -152 3
-135 23 -225 62 -274 31 -39 40 -82 22 -110 -7 -11 -50 -16 -173 -23 -163 -8
-198 -4 -220 27 -13 17 -9 79 7 109 43 83 48 139 46 620 -1 253 -6 466 -10
475 -5 9 -12 40 -16 69 -4 30 -13 66 -21 80 -20 39 -17 72 8 99 l21 23 375 0
c358 0 376 -1 407 -20z m3169 -4 c81 -17 114 -45 146 -126 28 -72 28 -182 -1
-224 -43 -63 -139 -85 -209 -47 -45 24 -58 58 -42 117 10 37 10 50 -3 74 -20
39 -28 42 -92 41 -74 0 -126 -34 -154 -97 -24 -56 -24 -97 -1 -132 22 -34 49
-62 61 -62 5 0 16 -6 23 -13 20 -20 102 -66 219 -126 127 -63 201 -128 260
-226 57 -94 63 -120 63 -260 0 -117 -14 -209 -34 -229 -6 -6 -10 -17 -10 -26
0 -9 -24 -42 -52 -72 -82 -87 -87 -88 -446 -88 l-308 0 -39 41 -40 40 2 77 c3
97 32 283 53 342 19 53 54 79 129 99 44 11 60 11 93 0 73 -24 81 -62 32 -141
-42 -66 -29 -163 28 -215 41 -37 91 -49 139 -33 60 20 82 41 117 112 53 109
51 160 -10 298 -46 103 -108 148 -235 170 -57 9 -77 9 -123 -5 -92 -27 -99
-28 -130 -15 -55 23 -70 63 -70 187 0 64 6 132 15 166 18 69 20 227 3 273 -9
26 -8 38 6 68 9 19 23 39 31 43 26 15 503 6 579 -11z m-5584 -134 c0 -7 9 -32
21 -55 11 -23 22 -66 24 -96 4 -64 -6 -76 -73 -87 -55 -8 -82 13 -82 66 0 37
29 138 57 199 l15 34 19 -24 c10 -13 19 -30 19 -37z m1525 -119 c-3 -14 -1
-31 5 -38 14 -17 9 -107 -7 -112 -16 -6 -32 53 -28 107 4 80 4 80 21 73 11 -4
14 -13 9 -30z m-960 -70 c-5 -78 -14 -101 -34 -89 -14 9 -14 53 -1 61 6 4 8
21 4 41 -7 41 0 64 20 64 13 0 15 -13 11 -77z m-2337 22 c20 -13 53 -30 72
-36 52 -17 60 -27 60 -70 0 -37 -23 -141 -40 -184 -5 -11 -10 -27 -12 -35 -6
-19 -58 58 -58 85 0 11 -16 65 -36 120 -57 160 -57 167 14 120z m6288 10 c4
-12 -114 -70 -123 -61 -3 3 -1 17 5 30 15 33 110 58 118 31z m338 -106 c6 -30
-7 -67 -27 -81 -7 -4 -7 -11 1 -20 6 -8 7 -19 3 -26 -10 -16 -24 -1 -52 55
-26 51 -24 70 9 87 42 24 59 20 66 -15z m-2262 -246 c-2 -27 -9 -54 -15 -60
-6 -9 -6 -17 1 -25 6 -9 7 -39 1 -88 -5 -41 -10 -95 -12 -119 -3 -58 -19 -61
-41 -9 -34 82 -66 147 -76 153 -6 3 -10 17 -10 31 0 27 98 139 135 155 11 4
21 8 21 8 1 1 -1 -20 -4 -46z m2290 -72 c18 -21 42 -43 53 -49 12 -6 27 -22
34 -36 13 -23 12 -28 -13 -61 -32 -41 -63 -45 -116 -16 -19 11 -50 27 -67 36
-47 22 -44 53 13 115 26 27 50 50 55 50 4 0 22 -17 41 -39z m-5955 -55 c13
-15 23 -37 23 -50 0 -12 4 -26 9 -31 4 -6 14 -62 21 -126 13 -115 13 -116 -14
-189 -25 -70 -90 -180 -107 -180 -4 0 -17 12 -28 28 -12 15 -26 33 -33 41
-124 139 -138 164 -145 260 -8 120 32 209 115 258 53 31 127 26 159 -11z
m5631 -38 c7 -7 12 -15 12 -20 0 -8 -140 -128 -151 -128 -3 0 -9 19 -12 42 -7
49 13 95 46 108 32 13 91 12 105 -2z m857 -155 c34 -51 2 -183 -44 -183 -40 0
-45 24 -21 112 30 113 35 118 65 71z m-979 -46 c1 -18 5 -47 9 -64 5 -23 4
-33 -4 -33 -19 0 -32 50 -25 97 7 49 18 49 20 0z"/>
<path d="M1815 3921 c-89 -55 -173 -200 -145 -251 11 -21 54 -28 65 -11 14 23
116 61 159 59 61 -2 76 13 76 75 0 58 -27 110 -70 132 -37 19 -49 19 -85 -4z"/>
<path d="M650 3912 c-67 -33 -92 -98 -111 -282 -15 -145 10 -475 43 -580 42
-136 64 -169 126 -189 23 -8 52 -11 68 -7 42 11 102 79 109 123 4 21 11 49 17
63 25 58 18 379 -12 560 -12 72 -10 66 -75 203 -62 129 -90 147 -165 109z m84
-200 c41 -66 73 -240 80 -438 5 -139 -9 -222 -44 -258 -59 -62 -104 83 -116
374 -3 74 -7 141 -9 147 -6 19 17 186 28 201 17 21 36 13 61 -26z"/>
<path d="M3999 3925 c-49 -26 -94 -103 -109 -185 -5 -25 -16 -79 -25 -120 -9
-41 -20 -102 -25 -135 -12 -82 -6 -405 8 -430 6 -11 23 -45 37 -75 33 -73 53
-96 96 -114 85 -35 221 52 234 150 3 27 10 71 16 97 26 134 -3 505 -52 673
-16 52 -65 121 -100 138 -39 19 -46 19 -80 1z m58 -157 c17 -23 45 -107 38
-118 -3 -5 -1 -18 4 -28 17 -31 28 -162 21 -242 -4 -41 -3 -80 1 -85 19 -26 8
-186 -17 -252 -16 -41 -18 -43 -60 -43 -79 0 -102 64 -104 290 0 133 15 259
45 365 8 28 17 61 21 75 7 28 22 50 34 50 4 0 12 -6 17 -12z"/>
<path d="M5086 3943 c-35 -9 -93 -51 -116 -83 -38 -53 -58 -156 -59 -297 -1
-81 1 -94 18 -103 35 -18 49 -11 123 59 40 38 89 84 109 102 77 72 100 168 60
255 -29 64 -69 84 -135 67z m32 -183 c1 -9 -14 -33 -35 -55 l-37 -40 -8 45
c-7 37 -5 47 10 58 22 17 66 11 70 -8z"/>
<path d="M3197 1844 c-3 -3 -45 -6 -94 -6 -96 0 -138 -13 -217 -67 -61 -42
-99 -41 -140 3 -40 44 -72 56 -149 56 -65 0 -78 -5 -147 -57 -24 -18 -53 -33
-66 -33 -12 0 -49 18 -81 39 -77 51 -117 61 -244 61 -115 0 -187 -16 -250 -55
-61 -39 -82 -41 -120 -7 -40 35 -96 65 -108 58 -4 -3 -104 -6 -220 -7 l-212
-2 -50 -47 c-63 -61 -88 -66 -130 -28 -35 33 -58 43 -137 64 -64 17 -366 19
-409 3 -43 -16 -112 -89 -122 -129 -5 -19 -7 -123 -5 -230 4 -245 4 -697 -1
-900 -4 -178 5 -213 73 -267 68 -55 70 -55 261 -50 198 5 249 16 330 72 59 41
71 42 97 14 10 -12 39 -35 64 -53 l45 -31 185 -2 c246 -3 266 0 341 50 l61 41
32 -18 c124 -73 146 -80 256 -80 135 0 193 15 276 71 44 29 72 42 80 37 7 -5
33 -26 58 -48 52 -44 114 -60 186 -50 49 7 70 18 113 58 41 38 68 42 111 12
79 -53 124 -68 229 -76 128 -9 208 1 255 33 108 71 117 72 175 18 36 -34 51
-41 102 -46 70 -8 134 6 160 35 25 28 63 25 110 -7 37 -26 49 -28 149 -31 59
-2 123 -1 141 2 37 7 119 75 140 116 14 27 28 112 25 153 -3 37 -4 134 -3 177
5 120 -5 950 -11 987 -6 32 -19 52 -60 91 -86 81 -169 91 -254 29 -55 -41 -84
-46 -104 -18 -25 36 -85 52 -197 53 -115 1 -153 -10 -207 -55 -18 -15 -39 -27
-48 -27 -9 0 -56 20 -104 45 -51 26 -96 43 -105 40 -8 -4 -24 -2 -35 4 -11 6
-22 8 -25 5z m-968 -127 c96 -50 130 -143 131 -358 0 -158 6 -149 -105 -149
-112 0 -105 -12 -105 170 l0 158 -27 18 c-40 27 -107 25 -135 -4 -22 -22 -23
-30 -23 -175 0 -84 3 -164 8 -179 9 -32 44 -52 107 -62 136 -21 237 -91 261
-182 18 -68 23 -376 8 -434 -40 -146 -134 -199 -332 -187 -202 13 -257 92
-265 374 -4 153 -4 153 20 161 12 5 59 6 103 3 l80 -6 -3 -110 c-4 -147 10
-216 50 -240 36 -21 100 -16 129 11 17 15 19 32 19 178 0 130 -3 166 -16 184
-18 27 -56 47 -104 56 -105 19 -155 41 -202 89 -27 27 -48 56 -48 66 0 9 -6
23 -12 30 -10 9 -13 67 -13 219 l0 207 30 60 c54 106 129 138 304 130 74 -4
104 -10 140 -28z m1078 4 c66 -35 90 -65 118 -143 17 -47 32 -297 21 -341 -6
-27 -7 -27 -95 -27 -49 0 -96 3 -105 6 -13 5 -14 22 -9 118 8 156 0 202 -40
227 -41 25 -93 18 -124 -17 l-23 -25 0 -484 c0 -528 -3 -503 57 -526 45 -17
83 -10 112 19 26 26 28 34 33 142 4 72 2 120 -4 127 -7 8 -23 11 -47 7 -53 -9
-62 8 -59 103 l3 78 150 0 150 0 0 -237 c0 -176 -3 -240 -12 -250 -7 -6 -13
-19 -13 -26 0 -25 -67 -98 -107 -118 -31 -15 -61 -19 -168 -19 -148 0 -188 13
-243 81 -59 71 -64 121 -59 644 2 268 7 482 13 505 24 94 92 158 189 176 71
14 220 2 262 -20z m-2481 -7 c64 -19 113 -59 142 -117 21 -41 24 -69 33 -259
11 -229 4 -683 -12 -786 -11 -71 -27 -102 -78 -149 -59 -54 -111 -64 -325 -61
l-188 3 0 687 c0 378 3 692 6 697 9 15 362 2 422 -15z m819 -75 l0 -94 -150 0
-150 0 0 -198 c0 -113 4 -201 9 -205 5 -3 71 -6 145 -6 l136 -1 3 -84 c2 -52
-1 -88 -8 -95 -7 -7 -62 -11 -147 -11 l-136 0 0 -205 0 -205 139 -1 c76 0 145
-1 152 -2 10 -2 12 -25 10 -94 l-3 -93 -249 -3 c-137 -1 -253 1 -258 6 -11 11
-10 1374 1 1381 5 4 121 6 258 5 l248 -1 0 -94z m1050 91 c4 -6 7 -320 7 -698
l0 -687 -102 0 -101 0 -1 687 c0 378 3 692 7 698 8 13 182 13 190 0z m1178
-30 c4 -19 15 -69 22 -110 8 -41 21 -111 30 -155 19 -102 44 -256 50 -320 3
-27 12 -97 20 -155 35 -258 45 -338 48 -380 2 -41 4 -45 27 -45 30 0 29 -12
13 200 -36 472 -57 973 -41 992 14 18 182 18 194 1 5 -7 9 -321 9 -698 l0
-685 -164 0 -165 0 -14 70 c-13 70 -30 155 -52 270 -17 92 -39 258 -49 380 -5
61 -12 117 -15 125 -3 8 -11 71 -17 140 -17 191 -20 208 -34 220 -29 24 -34
-12 -25 -195 5 -99 14 -234 19 -300 6 -66 13 -219 16 -340 4 -121 10 -249 15
-285 12 -88 9 -91 -108 -88 l-95 3 -1 693 c0 382 0 695 2 697 2 1 71 2 155 1
l151 -1 9 -35z m-2278 -326 c32 -34 31 -46 -2 -70 -44 -32 -61 -36 -73 -15 -6
12 -17 17 -28 14 -12 -3 -22 2 -26 12 -8 21 36 65 64 65 10 0 22 5 25 10 9 15
13 13 40 -16z m40 -544 c4 -6 2 -17 -4 -24 -8 -10 -9 -27 -1 -61 6 -25 8 -50
5 -55 -3 -4 -32 -11 -66 -15 -50 -6 -63 -4 -79 10 -17 15 -19 26 -14 74 8 71
15 78 59 62 30 -10 38 -10 57 3 26 19 35 20 43 6z"/>
<path d="M609 1549 c-1 -2 -2 -232 -3 -512 l-1 -507 71 0 c62 0 73 3 94 25
l23 24 -1 457 0 457 -25 25 c-20 19 -38 25 -91 29 -36 3 -67 4 -67 2z"/>
<path d="M4960 1841 c-151 -13 -268 -118 -310 -281 -7 -25 -16 -55 -21 -68 -5
-13 -6 -29 -2 -35 4 -7 8 -75 8 -152 0 -151 14 -216 62 -282 34 -46 28 -77
-22 -133 -13 -14 -28 -41 -33 -62 -15 -57 -4 -254 20 -343 13 -49 78 -154 96
-155 6 0 12 -4 12 -9 0 -4 22 -21 48 -38 38 -24 69 -33 146 -43 125 -16 190
-9 277 31 54 25 84 47 125 93 30 34 54 70 54 81 1 11 7 31 15 45 8 14 14 35
15 48 0 12 5 22 12 22 15 0 4 368 -11 383 -6 6 -11 19 -11 29 0 9 -13 39 -30
65 -28 44 -40 107 -22 115 9 3 60 79 81 121 17 33 39 35 46 4 7 -28 13 -345 7
-369 -2 -10 -11 -18 -18 -18 -8 0 -14 -7 -14 -15 0 -8 7 -15 15 -15 13 0 15
-24 14 -167 -1 -93 2 -195 6 -228 17 -138 95 -215 219 -217 71 -1 106 15 163
74 37 38 54 77 58 133 11 132 13 225 5 230 -14 9 19 65 35 58 19 -7 19 -22 0
-29 -19 -8 -19 -33 -1 -40 11 -4 14 -19 12 -52 -2 -26 3 -58 10 -72 7 -14 15
-41 18 -60 8 -50 81 -145 143 -186 89 -59 122 -67 268 -65 137 2 174 12 250
65 67 47 75 47 127 -4 25 -25 57 -47 70 -48 13 -2 93 -4 178 -6 186 -3 279 14
365 69 30 19 60 35 67 35 8 0 38 -22 68 -50 53 -48 57 -50 120 -52 104 -3 107
-2 176 53 l65 52 27 -22 c15 -12 60 -37 101 -56 68 -32 80 -35 180 -36 154 -3
191 3 248 40 48 31 108 94 131 137 13 24 36 94 46 135 10 45 7 899 -4 981 -5
43 -19 96 -30 119 -29 56 -103 122 -180 161 -63 32 -68 33 -177 31 -137 -3
-189 -17 -281 -78 l-71 -47 -32 37 c-46 52 -99 76 -173 77 -74 1 -106 -14
-170 -79 -34 -35 -51 -45 -60 -38 -145 103 -183 114 -415 115 -144 0 -156 -2
-203 -25 -62 -31 -79 -31 -116 0 -35 30 -124 50 -152 35 -10 -6 -27 -10 -38
-10 -11 0 -25 -7 -33 -16 -7 -9 -33 -29 -57 -46 l-44 -30 -36 34 c-63 60 -81
68 -150 68 -43 0 -75 -6 -102 -20 -48 -25 -63 -25 -97 -2 -24 15 -59 17 -263
20 -341 5 -317 7 -364 -32 -72 -58 -78 -59 -127 -26 -24 16 -52 30 -62 30 -10
0 -28 7 -40 15 -27 18 -135 25 -237 16z m249 -122 c45 -23 78 -61 107 -124 16
-34 19 -65 19 -210 l0 -170 -89 -3 c-49 -2 -94 2 -99 7 -6 6 -9 69 -8 150 2
115 -1 145 -14 165 -34 51 -128 56 -165 9 -18 -23 -20 -41 -20 -165 0 -191 17
-226 119 -242 139 -22 209 -65 254 -155 l32 -66 -1 -196 c-1 -195 -1 -196 -30
-255 -53 -108 -159 -149 -340 -130 -80 8 -103 17 -148 56 -68 60 -84 116 -93
322 -5 117 -3 128 15 146 18 18 29 20 104 15 45 -3 86 -10 89 -15 3 -5 4 -73
1 -152 -5 -139 -4 -142 20 -170 18 -21 35 -29 70 -33 42 -5 50 -3 78 25 l30
30 -1 139 c0 83 -5 152 -13 173 -14 40 -55 64 -126 75 -25 4 -49 10 -55 15 -5
4 -23 10 -38 14 -82 20 -143 91 -166 196 -14 62 -10 328 6 395 15 62 58 122
105 147 59 30 107 37 219 33 74 -3 106 -9 138 -26z m3232 3 c55 -25 94 -68
119 -133 19 -47 20 -75 20 -549 0 -481 -1 -501 -21 -552 -23 -61 -66 -109
-118 -135 -53 -26 -280 -26 -332 0 -63 31 -104 81 -122 147 -24 85 -25 993 -2
1074 26 89 90 149 180 167 71 14 227 3 276 -19z m-2393 -71 c2 -52 -1 -88 -8
-95 -6 -6 -49 -11 -101 -11 l-91 0 -1 -600 -2 -600 -94 -3 c-55 -2 -98 1 -104
7 -7 7 -10 199 -8 573 2 310 4 577 5 593 l1 30 -90 0 c-49 1 -96 2 -102 3 -14
2 -19 172 -6 185 4 4 140 6 302 5 l296 -3 3 -84z m303 -512 l-2 -597 34 -21
c19 -11 47 -21 62 -21 38 0 83 29 90 59 4 14 5 285 4 601 l-3 575 105 0 104 0
0 -605 c0 -670 2 -650 -66 -725 -55 -60 -88 -70 -234 -70 -117 0 -134 2 -174
23 -58 31 -96 75 -118 137 -16 45 -18 105 -19 630 -1 319 1 588 3 598 4 16 16
17 110 15 l106 -3 -2 -596z m969 575 c83 -27 128 -80 154 -183 13 -53 16 -130
16 -494 0 -507 -3 -535 -76 -616 -66 -73 -105 -82 -339 -79 l-190 3 -3 685
c-1 377 0 690 2 697 7 18 373 8 436 -13z m508 -677 l2 -697 -99 0 c-56 0 -103
4 -106 10 -3 5 -6 317 -6 692 0 544 3 683 13 690 7 4 54 7 103 6 l90 -3 3
-698z m-2318 344 c14 -26 13 -28 -11 -34 -22 -6 -35 13 -25 38 8 21 23 19 36
-4z m503 -107 c9 -9 -4 -35 -14 -28 -5 3 -9 12 -9 20 0 14 12 19 23 8z m5
-155 c4 -43 -14 -92 -31 -86 -12 4 -12 100 0 120 11 18 28 -2 31 -34z m-3
-130 c8 -25 -2 -69 -15 -69 -19 0 -33 46 -21 69 15 27 28 27 36 0z"/>
<path d="M8220 1562 l-35 -19 -3 -501 -2 -500 34 -21 c18 -12 46 -21 61 -21
35 0 82 28 90 54 11 37 18 585 10 779 -7 172 -9 191 -29 213 -29 34 -81 40
-126 16z"/>
<path d="M7100 1549 c-1 -2 -2 -232 -3 -512 l-2 -507 67 0 c59 0 70 3 93 25
l25 26 0 454 0 454 -24 27 c-20 24 -32 28 -90 32 -36 2 -66 3 -66 1z"/>
</g>
</svg>
