<?xml version="1.0" standalone="no"?>
<!DOCTYPE svg PUBLIC "-//W3C//DTD SVG 20010904//EN"
 "http://www.w3.org/TR/2001/REC-SVG-20010904/DTD/svg10.dtd">
<svg version="1.0" xmlns="http://www.w3.org/2000/svg"
 width="300.000000pt" height="300.000000pt" viewBox="0 0 300.000000 300.000000"
 preserveAspectRatio="xMidYMid meet">
<metadata>
Created by potrace 1.10, written by Peter Selinger 2001-2011
</metadata>
<g transform="translate(0.000000,300.000000) scale(0.100000,-0.100000)"
fill="#000000" stroke="none">
<path d="M184 2162 c-42 -4 -60 -37 -45 -83 15 -48 15 -282 0 -357 -12 -59
-12 -63 8 -83 18 -19 32 -21 126 -20 110 1 135 7 176 40 l25 19 27 -29 c20
-22 37 -29 66 -30 63 -2 77 2 101 27 26 27 25 29 -25 85 -43 47 -37 123 11
154 20 13 29 14 46 5 12 -6 19 -14 16 -17 -3 -4 -2 -11 3 -17 21 -25 21 -96 1
-129 -25 -40 -25 -69 -2 -89 13 -12 44 -16 145 -16 124 0 128 1 147 25 14 18
18 33 13 52 -14 51 -7 107 17 141 20 28 24 30 32 16 14 -25 11 -94 -5 -148
-14 -45 -14 -48 7 -67 31 -29 108 -29 134 0 l20 20 37 -20 c51 -27 213 -29
257 -3 24 14 30 14 37 3 14 -21 130 -25 153 -4 20 18 24 53 8 69 -5 5 -13 30
-16 55 -5 36 -3 47 8 52 12 4 18 -8 28 -51 20 -92 30 -112 69 -131 33 -17 40
-18 79 -5 30 11 47 12 61 4 28 -15 59 -12 92 7 34 21 39 61 10 87 -18 16 -47
103 -38 113 2 2 14 -19 26 -46 23 -53 66 -95 91 -88 43 13 45 12 42 -14 -2
-14 6 -36 16 -49 16 -19 29 -24 67 -24 26 1 50 5 53 10 8 11 30 11 53 0 19 -8
231 -3 271 7 15 4 29 3 33 -3 4 -6 53 -10 117 -10 128 0 156 11 185 73 17 38
18 39 24 16 4 -13 7 23 7 81 -1 74 -3 93 -8 65 -4 -22 -8 -32 -9 -22 -1 21
-12 36 -69 94 -34 35 -39 43 -23 43 27 0 61 46 61 82 0 37 -24 84 -50 98 -17
9 -126 15 -208 11 -14 -1 -30 -13 -41 -32 -18 -29 -19 -30 -26 -10 -12 40 -57
53 -170 49 -78 -3 -109 -8 -122 -20 -16 -14 -20 -15 -37 -2 -28 20 -106 18
-131 -4 -12 -9 -27 -30 -35 -45 l-14 -28 -18 34 c-18 35 -46 51 -110 62 -29 4
-42 1 -64 -19 -28 -23 -28 -25 -16 -70 8 -33 9 -66 2 -123 -6 -43 -11 -100
-13 -128 l-2 -50 -27 54 c-24 51 -27 81 -7 81 5 0 16 14 24 31 24 45 11 164
-21 196 -20 20 -33 23 -111 24 -48 1 -102 3 -120 5 -23 3 -40 -3 -59 -20 l-27
-23 11 -71 c14 -82 15 -189 2 -157 -10 26 -30 156 -30 199 0 56 -22 66 -138
66 -129 0 -142 -9 -142 -102 0 -35 -7 -85 -15 -113 l-15 -50 5 90 c2 50 7 100
11 112 4 16 -1 29 -20 47 -51 52 -168 21 -151 -39 3 -11 8 -38 11 -61 l6 -41
-35 -1 c-32 -1 -34 1 -32 27 1 16 6 34 10 41 5 7 9 24 11 36 5 51 -92 79 -155
45 -21 -12 -23 -18 -17 -54 8 -48 11 -206 4 -213 -3 -2 -13 33 -23 78 -38 183
-63 206 -218 204 -113 -2 -151 -17 -164 -65 -8 -32 16 -74 47 -81 27 -7 27
-10 9 -93 -6 -26 -13 -46 -15 -44 -3 2 -12 32 -20 67 -21 82 -71 169 -111 192
-30 18 -116 27 -189 20z m583 -59 c12 -15 29 -59 38 -97 9 -39 23 -97 31 -130
24 -89 30 -206 13 -217 -20 -12 -116 -11 -124 2 -4 5 -1 18 7 27 41 48 46 137
12 204 -40 77 -164 15 -164 -81 0 -40 21 -91 49 -115 37 -34 27 -46 -39 -46
-100 0 -102 12 -41 280 19 82 25 131 20 142 -11 20 -39 13 -39 -9 0 -22 -35
-11 -38 13 -7 47 46 65 173 58 73 -3 82 -6 102 -31z m227 24 c17 -13 17 -15 2
-45 -17 -32 -21 -89 -8 -108 4 -6 30 -8 67 -5 l60 6 -3 40 c-2 22 -8 55 -13
72 -14 44 -6 53 45 53 57 0 72 -17 56 -65 -8 -23 -11 -100 -9 -228 l3 -192
-53 -3 -53 -3 5 28 c3 15 11 53 17 83 14 68 0 127 -33 139 -31 12 -45 4 -52
-30 -5 -20 -13 -29 -27 -29 -19 0 -20 -4 -15 -67 4 -38 7 -79 9 -93 3 -24 1
-25 -52 -25 -53 0 -55 1 -52 25 18 152 21 200 17 294 -3 62 -9 114 -16 123
-15 18 -3 30 36 36 17 2 35 5 41 6 5 0 18 -5 28 -12z m1057 -8 c15 -7 26 -38
59 -168 15 -58 27 -42 35 44 11 120 27 141 106 133 l34 -3 -3 -85 c-3 -54 2
-107 11 -145 23 -89 32 -198 18 -224 -9 -17 -21 -21 -57 -21 -53 0 -63 14 -40
59 25 47 17 298 -9 304 -10 2 -35 -142 -38 -221 -2 -50 -24 -70 -57 -52 -27
14 -49 68 -65 162 -30 165 -60 154 -60 -21 0 -113 1 -119 28 -154 15 -19 27
-42 27 -51 0 -17 -50 -30 -80 -21 -38 12 -42 37 -28 188 14 156 14 207 3 251
-6 20 -4 31 6 37 15 9 83 2 110 -12z m540 4 c12 -12 25 -93 14 -93 -4 0 -20
11 -37 25 -16 14 -41 25 -55 25 -27 0 -83 -49 -83 -73 0 -46 28 -59 64 -32 34
26 62 19 80 -20 10 -19 14 -40 11 -45 -3 -5 -25 -7 -49 -4 -36 5 -47 3 -65
-15 -19 -19 -21 -31 -19 -83 3 -52 7 -64 29 -80 22 -16 30 -18 48 -9 22 12 29
55 11 66 -5 3 -10 13 -10 21 0 21 86 20 94 -2 11 -28 6 -130 -6 -142 -8 -8
-52 -12 -134 -12 -135 0 -152 7 -129 50 22 38 18 259 -7 405 -3 17 4 21 52 26
77 9 178 5 191 -8z m311 -11 c6 -6 12 -30 12 -53 1 -48 -17 -65 -58 -55 -22 5
-27 11 -23 27 8 31 -2 49 -28 49 -32 0 -55 -25 -55 -60 0 -26 8 -34 75 -71 78
-43 110 -77 126 -133 12 -45 -3 -111 -32 -142 -21 -22 -29 -24 -128 -24 -58 0
-112 4 -120 9 -11 7 -13 25 -8 77 4 54 10 72 27 86 43 35 84 14 61 -31 -16
-29 2 -69 35 -77 22 -6 32 -2 51 20 65 75 -11 187 -116 170 -54 -9 -61 8 -53
126 l7 95 70 5 c77 6 141 -2 157 -18z m-2540 1 c40 -25 87 -125 103 -224 19
-122 -5 -207 -66 -228 -42 -14 -222 -14 -236 0 -8 8 -7 21 4 47 25 60 23 291
-2 395 l-7 27 87 0 c65 0 94 -4 117 -17z m1139 -48 c8 -69 24 -161 38 -220 6
-22 10 -62 10 -90 0 -84 -30 -105 -149 -105 -90 0 -142 16 -160 51 -15 27 -7
109 21 216 10 42 19 104 19 138 0 34 3 65 7 69 4 4 52 5 107 4 l101 -3 6 -60z
m356 5 c19 -91 16 -105 -22 -142 l-34 -33 53 -110 c57 -118 58 -135 4 -135
-53 0 -65 14 -84 101 -24 112 -46 131 -87 77 -18 -24 -19 -32 -8 -80 21 -94
22 -93 -32 -96 -67 -4 -77 6 -62 66 13 52 14 301 1 370 l-9 43 134 -3 134 -3
12 -55z m477 -100 c4 -89 4 -93 -10 -61 -8 18 -14 65 -14 104 0 104 18 71 24
-43z m203 64 c3 -8 -50 -34 -70 -34 -14 0 7 32 27 40 24 10 38 8 43 -6z m271
-19 c6 -14 8 -25 4 -25 -12 0 -32 23 -32 37 0 22 16 15 28 -12z m-173 -40 c-7
-51 -5 -56 22 -84 l29 -29 -21 -20 c-20 -20 -21 -20 -45 0 -49 39 -130 -5
-109 -59 11 -29 7 -38 -16 -30 -11 5 -15 20 -15 55 0 59 16 77 59 67 35 -7 67
7 76 34 6 20 -18 79 -39 94 -7 6 -5 7 6 4 9 -3 22 1 28 9 24 28 32 15 25 -41z
m167 -122 c34 -40 32 -103 -4 -103 -17 0 -18 5 -13 41 5 31 2 46 -11 60 -14
16 -15 19 -2 19 8 0 22 -8 30 -17z"/>
<path d="M646 2039 c-45 -53 -35 -72 29 -51 35 11 45 19 45 36 0 24 -17 46
-36 46 -7 0 -24 -14 -38 -31z"/>
<path d="M277 2048 c-22 -34 -29 -113 -17 -202 12 -96 30 -128 68 -124 43 5
54 39 49 154 -3 83 -8 108 -28 145 -28 51 -52 60 -72 27z m63 -86 c21 -84 10
-212 -19 -212 -18 0 -31 67 -32 162 -1 53 2 101 6 108 12 19 32 -7 45 -58z"/>
<path d="M1360 2055 c-33 -40 -50 -221 -27 -278 21 -50 41 -62 77 -47 48 20
63 107 39 236 -17 93 -54 131 -89 89z m51 -52 c16 -51 20 -195 6 -223 -18 -35
-34 -35 -51 -1 -11 20 -14 45 -11 78 3 26 5 61 5 76 0 38 19 107 30 107 4 0
14 -17 21 -37z"/>
<path d="M1694 2044 c-21 -31 -31 -119 -15 -128 15 -10 90 53 97 81 4 13 3 34
0 48 -9 35 -59 35 -82 -1z m54 -27 c3 -16 -36 -63 -45 -54 -3 3 0 22 7 42 12
36 32 43 38 12z"/>
<path d="M185 1511 c-15 -17 -17 -47 -18 -244 0 -180 2 -229 13 -242 22 -27
173 -17 202 13 l21 21 19 -25 c18 -22 27 -24 100 -24 61 0 86 4 99 16 17 15
20 15 45 -1 35 -23 112 -26 147 -6 15 8 27 19 27 23 0 16 25 8 38 -12 17 -28
87 -28 102 0 10 19 11 19 44 -1 50 -29 106 -32 152 -7 34 18 39 19 49 4 16
-22 91 -22 103 0 8 14 10 14 21 0 9 -11 31 -16 66 -16 86 0 85 -1 84 256 -1
148 -5 225 -13 235 -18 26 -54 32 -81 15 -20 -13 -29 -14 -57 -3 -37 14 -57
14 -106 3 -18 -4 -29 -12 -26 -18 4 -6 3 -9 -2 -6 -93 45 -143 47 -195 9 l-27
-20 -14 20 c-26 39 -96 31 -110 -13 -3 -7 -14 -4 -35 11 -45 34 -113 39 -158
12 -35 -20 -37 -20 -55 -3 -16 15 -35 18 -101 17 -73 -1 -83 -3 -99 -25 l-19
-25 -24 23 c-20 18 -39 24 -99 27 -65 4 -78 2 -93 -14z m181 -44 c23 -27 24
-33 24 -203 0 -172 0 -175 -25 -199 -21 -22 -33 -25 -100 -25 l-75 0 0 223 c0
123 3 227 8 231 4 4 38 6 76 4 60 -3 71 -7 92 -31z m244 3 c0 -29 -1 -30 -50
-30 l-50 0 0 -70 0 -70 45 0 c43 0 45 -1 45 -30 0 -29 -2 -30 -45 -30 l-45 0
0 -70 0 -70 50 0 c49 0 50 -1 50 -30 l0 -30 -85 0 -85 0 0 230 0 230 85 0 85
0 0 -30z m205 5 c21 -20 25 -34 25 -85 0 -60 0 -60 -29 -60 -29 0 -30 2 -33
51 -6 98 -68 92 -68 -6 0 -58 8 -69 59 -82 55 -14 75 -51 75 -133 -1 -84 -19
-116 -68 -126 -42 -7 -103 11 -116 36 -6 10 -10 46 -10 79 0 61 0 61 30 61 28
0 29 -1 32 -57 3 -57 3 -58 33 -58 28 0 30 2 33 44 5 73 -2 87 -53 100 -67 17
-79 43 -76 164 1 66 32 97 96 97 35 0 52 -6 70 -25z m145 -205 l0 -230 -35 0
-35 0 0 230 0 230 35 0 35 0 0 -230z m215 208 c20 -18 26 -36 32 -85 l6 -63
-37 0 -36 0 0 48 c0 65 -22 88 -54 56 -13 -13 -16 -42 -16 -167 0 -84 4 -158
9 -165 4 -8 19 -12 32 -10 21 3 24 9 27 51 2 37 0 47 -12 47 -11 0 -16 10 -16
30 0 29 1 30 51 30 l52 0 -5 -85 c-3 -63 -9 -89 -23 -105 -40 -45 -143 -33
-165 19 -8 19 -10 86 -8 206 3 172 4 177 27 196 33 27 102 26 136 -3z m183
-42 c7 -33 21 -122 32 -199 10 -76 21 -142 25 -145 6 -7 -2 305 -10 371 -5 37
-5 37 30 37 l35 0 0 -230 0 -230 -53 0 -53 0 -17 88 c-9 48 -22 138 -28 200
-7 61 -16 112 -22 112 -5 0 -6 -21 -3 -47 3 -27 8 -117 12 -200 l6 -153 -33 0
-34 0 -2 223 c0 122 1 226 4 230 3 4 26 7 51 5 l47 -3 13 -59z m-746 -48 c-7
-7 -7 -18 0 -34 14 -30 11 -32 -34 -27 -31 4 -37 9 -40 34 -5 34 5 54 23 47 8
-3 23 -2 34 2 22 8 33 -6 17 -22z m509 -68 c6 0 7 -4 4 -10 -3 -5 2 -11 12
-11 10 -1 30 -2 45 -3 51 -2 39 -14 -20 -18 l-59 -3 0 70 c0 48 2 55 4 23 2
-27 9 -48 14 -48z m-374 58 c-3 -8 -6 -5 -6 6 -1 11 2 17 5 13 3 -3 4 -12 1
-19z m113 -85 c0 -19 -3 -24 -10 -17 -6 6 -8 18 -4 27 9 24 14 21 14 -10z
m-216 -58 c-4 -8 -10 -13 -14 -10 -11 7 -21 -52 -14 -80 5 -21 3 -23 -28 -20
-18 2 -36 4 -40 4 -5 1 -8 19 -8 41 0 38 2 40 30 40 19 0 35 8 47 24 19 25 36
26 27 1z m103 -107 c-3 -8 -6 -5 -6 6 -1 11 2 17 5 13 3 -3 4 -12 1 -19z m373
8 c0 -3 -4 -8 -10 -11 -5 -3 -10 -1 -10 4 0 6 5 11 10 11 6 0 10 -2 10 -4z"/>
<path d="M260 1270 l0 -170 29 0 c17 0 31 6 35 16 3 9 6 80 6 158 0 150 -4
166 -47 166 l-23 0 0 -170z m37 93 c-3 -10 -5 -4 -5 12 0 17 2 24 5 18 2 -7 2
-21 0 -30z m0 -105 c-3 -8 -6 -5 -6 6 -1 11 2 17 5 13 3 -3 4 -12 1 -19z m0
-95 c-3 -10 -5 -4 -5 12 0 17 2 24 5 18 2 -7 2 -21 0 -30z"/>
<path d="M1674 1514 c-46 -22 -64 -62 -64 -137 0 -68 12 -116 33 -129 8 -5 5
-12 -10 -23 -19 -13 -23 -25 -23 -70 0 -99 39 -145 128 -150 48 -3 100 28 118
71 20 47 17 131 -5 180 -18 41 -18 42 0 58 14 12 18 26 15 56 -3 36 -2 40 20
40 l23 0 0 -186 c0 -206 2 -213 67 -214 52 0 56 13 58 204 1 124 5 179 13 187
7 7 16 10 20 6 3 -4 7 -79 8 -166 2 -178 9 -201 69 -226 42 -18 110 -11 142
14 26 20 26 20 47 1 28 -27 141 -28 186 -2 17 9 31 20 31 25 0 4 5 7 10 7 6 0
10 -7 10 -15 0 -37 90 -48 114 -14 l14 21 31 -23 c37 -27 113 -32 155 -9 50
26 56 53 56 245 0 191 -6 217 -56 250 -42 27 -126 17 -164 -20 -23 -22 -30
-25 -30 -12 0 24 -36 44 -71 39 -23 -3 -34 -12 -44 -35 -12 -30 -13 -30 -24
-9 -6 12 -21 27 -33 33 -28 15 -153 15 -171 0 -11 -9 -21 -8 -44 6 -26 14 -34
15 -62 4 -17 -8 -31 -17 -31 -22 0 -5 -11 -2 -24 6 -14 10 -43 15 -72 14 -27
0 -90 2 -140 5 -80 5 -93 3 -110 -13 -18 -18 -20 -18 -56 0 -45 23 -92 24
-134 3z m131 -37 c22 -18 27 -34 32 -85 l6 -62 -37 0 -36 0 0 55 c0 30 -2 55
-4 55 -2 0 -11 3 -19 6 -24 9 -47 -24 -47 -67 0 -48 15 -79 36 -79 9 0 31 -7
50 -16 42 -20 58 -65 52 -145 -6 -80 -29 -104 -99 -104 -43 0 -54 4 -75 28
-20 23 -24 39 -24 88 0 59 0 59 30 59 29 0 30 -1 30 -47 0 -59 10 -76 41 -71
22 3 24 7 24 67 l0 63 -53 20 c-63 24 -72 40 -72 139 0 61 3 73 25 94 33 34
103 35 140 2z m265 -7 c0 -28 -3 -30 -36 -30 l-35 0 3 -200 3 -200 -32 0 -33
0 0 200 0 200 -35 0 c-32 0 -35 2 -35 30 l0 30 100 0 100 0 0 -30z m102 -172
l3 -203 30 0 30 0 3 203 2 202 30 0 30 0 0 -209 c0 -191 -2 -211 -19 -232 -16
-20 -28 -24 -75 -24 -44 0 -60 5 -78 23 -22 22 -23 30 -26 218 -2 107 -1 201
2 209 3 9 18 15 35 15 l31 0 2 -202z m351 173 c20 -20 22 -33 25 -183 4 -177
1 -199 -28 -228 -16 -16 -34 -20 -95 -20 l-75 0 0 231 0 232 76 -5 c60 -4 80
-10 97 -27z m140 -204 l2 -227 -32 0 -33 0 0 231 0 230 31 -3 30 -3 2 -228z
m222 208 c25 -24 25 -26 25 -205 0 -101 -4 -190 -10 -200 -13 -25 -73 -43
-114 -36 -65 12 -71 29 -74 209 -5 227 6 255 106 256 33 1 49 -5 67 -24z
m-678 -67 c-2 -13 -4 -3 -4 22 0 25 2 35 4 23 2 -13 2 -33 0 -45z m-458 -41
c1 -5 -3 -5 -9 -2 -5 3 -10 16 -9 28 0 21 1 21 9 2 5 -11 9 -24 9 -28z m458
-19 c-3 -7 -5 -2 -5 12 0 14 2 19 5 13 2 -7 2 -19 0 -25z m3 -54 c0 -19 -4
-33 -8 -30 -4 2 -7 17 -6 33 3 33 3 33 9 33 3 0 5 -16 5 -36z m-3 -66 c-3 -8
-6 -5 -6 6 -1 11 2 17 5 13 3 -3 4 -12 1 -19z m-464 -93 c-7 -21 -13 -19 -13
6 0 11 4 18 10 14 5 -3 7 -12 3 -20z m464 -7 c-3 -8 -6 -5 -6 6 -1 11 2 17 5
13 3 -3 4 -12 1 -19z"/>
<path d="M2420 1271 l0 -171 30 0 30 0 -2 168 -3 167 -27 3 -28 3 0 -170z m37
77 c-2 -13 -4 -5 -4 17 -1 22 1 32 4 23 2 -10 2 -28 0 -40z m0 -205 c-3 -10
-5 -2 -5 17 0 19 2 27 5 18 2 -10 2 -26 0 -35z"/>
<path d="M2792 1442 c-9 -7 -12 -49 -10 -178 l3 -169 24 -3 c13 -2 28 2 32 10
14 21 11 322 -3 336 -14 14 -28 15 -46 4z m26 -128 l-3 -79 -5 87 c-3 48 -1
83 3 79 4 -4 7 -43 5 -87z m-1 -166 c-2 -13 -4 -5 -4 17 -1 22 1 32 4 23 2
-10 2 -28 0 -40z"/>
<path d="M2993 1245 c0 -22 2 -30 4 -17 2 12 2 30 0 40 -3 9 -5 -1 -4 -23z"/>
</g>
</svg>
